<svg xmlns="http://www.w3.org/2000/svg" viewBox="0 0 362.48 313.89" xmlns:v="https://vecta.io/nano"><defs><clipPath id="A"><path d="M4.42 110.76h353.64v92.36H4.42z" fill="none"/></clipPath><path id="B" d="M28.72 145.99l3.74 7.45c3.07 5.79 6.94 11.01 11.46 15.75 2.9 3.05 5.86 6.04 8.84 9.01.83.83 1.33 1.69 1.42 2.89.15 2.13.52 4.25.68 6.39.37 4.92.62 9.84-.65 14.69l-2.65 9.89c-.82 3.05-.59 6.01.98 8.76 1.14 2 2.4 3.93 3.72 5.81.58.83 1.39 1.51 2.15 2.21 1.65 1.52 3.58 2.63 5.51 3.73 1.97 1.13 3.1 2.7 3.48 5.05 1.02 6.31 3.13 12.31 6.09 17.97.99 1.89 2.16 3.71 3.38 5.46a17.98 17.98 0 0 0 2.85 3.19c1.8 1.57 3.87 2.37 6.36 1.94 1.47-.25 3.01-.19 4.51-.24 5.02-.15 9.94 1.15 14.94 1.19 2.49.02 4.03 1.19 5.49 3.06 2.46 3.14 4.9 6.26 6.24 10.07 1.6 4.55 4.68 8.1 7.99 11.42 2.48 2.49 5.61 3.82 9.19 3.98 2.47.11 4.88.61 7.18 1.55 1.46.6 2.93 1.22 4.33 1.96 2.7 1.42 5.58 2.27 8.54 2.91 2.27.48 4.42.45 6.28-1.19.1-.08.29-.06.54-.1 1.34 1.83 2.98 3.43 4.9 4.74 1.27.86 2.65 1.36 4.18 1.61 2.84.47 5.7.57 8.55.41 4.12-.22 8.2-.69 12.19-1.9 4.12-1.25 8.39-1.84 12.68-1.84 3.78 0 7.42-.64 11.04-1.58a10.18 10.18 0 0 0 5.81-3.9c2.23-3.01 4.74-5.77 7.6-8.2a142.72 142.72 0 0 1 4.04-3.33c1.97-1.55 3.14-3.58 3.55-6.01.22-1.32.32-2.68.34-4.02.03-2.17.51-4.22 1.23-6.26.59-.2 1.1-.43 1.64-.53l12.63-2.4c2.18-.37 4.41-.46 6.62-.69 3.24-.33 6.49-.51 9.7-1.03 4.49-.73 8.98-1.08 13.52-.76l6.17.37c2.7.16 4.54-1.12 5.74-3.46 1.24-2.4 1.68-4.96 1.3-7.63-.23-1.57-.61-3.12-.89-4.68-.32-1.78-.74-3.54-.64-5.25 1.06-.86 2.08-1.52 2.88-2.38 2.84-3.03 6.01-5.65 9.37-8.07 4.01-2.89 6.68-6.7 7.72-11.62.59-2.8 1.11-5.6 1.35-8.46.33-3.87.44-7.75 1.59-11.52.62-2.05.81-4.22.62-6.37-.59-6.8-3.44-12.47-8.58-16.98-.26-.23-.44-.57-.71-.93.51-.28.83-.56 1.19-.65 2.4-.64 4.61-1.71 6.81-2.83 1.64-.84 3.34-1.46 5.14-1.85 4.86-1.03 8.3-4.02 10.47-8.28 1.87-3.66 3.24-7.58 4.76-11.42.59-1.49.81-3.08.58-4.69-.28-1.96-.48-3.95-.91-5.88-.65-2.92-.64-5.87-.36-8.77.37-3.81.07-7.62.37-11.42.14-1.82-.6-3.42-1.62-4.88-.36-.52-.82-.97-1.18-1.49-1.11-1.57-2.22-3.22-2.32-5.15-.1-1.88-.97-3.13-2.36-4.16-.6-.45-1.01-.99-1.25-1.68-1.1-3.19-2.77-6.06-4.85-8.71-.71-.9-.79-1.79-.47-2.89.86-2.97 1.64-5.97 2.41-8.97.88-3.41.66-6.85-.64-10.05-2.04-5.04-5.28-9.19-10.06-12.02-2.39-1.42-4.71-2.95-7.04-4.46l-10.57-6.91a39.38 39.38 0 0 0-3.51-2.02c-8.88-4.5-18.08-8.14-27.71-10.74-6.86-1.85-13.76-3.16-20.89-2.99-1.03.02-1.83-.32-2.59-.98l-9.9-8.57c-5.46-4.61-10.71-9.46-16.54-13.62-3.08-2.2-6.31-3.96-10.02-4.79-3.26-.73-6.51-1.2-9.89-.85-2.33.24-4.53.71-6.6 1.81a112.95 112.95 0 0 1-4.25 2.16c-1.07.52-2.14 1.06-3.26 1.45-2.7.96-5.33 2.08-7.84 3.46-2.61 1.43-5.38 2.34-8.29 2.88l-3.05.54c-4.08.65-8.16 1.23-12.31 1.09-1.27-.04-2.57-.12-3.81.09-5.5.97-10.54 2.97-14.54 7.06l-4.89 5.04c-1.12-.4-2.13-.85-3.2-1.11-1.62-.39-3.26-.71-4.91-.93-1.72-.22-3.48-.46-5.2-.35-1.15.08-2.21.03-3.26-.35-2.5-.91-5.17-.76-7.75-1.19-.38-.06-.8.02-1.18.12l-8.78 2.18c-.69.18-1.38.42-2 .76-3.42 1.88-7.12 3.13-10.74 4.53-2.25.87-4.27 2.04-6.19 3.49-1.13.85-2.38 1.6-3.68 2.15-3.21 1.36-6.49 2.58-9.74 3.85-2.02.79-3.8 1.91-5.35 3.47-1.79 1.8-3.7 3.47-5.59 5.17-2.09 1.89-3.88 3.98-4.72 6.75-.18.6-.45 1.19-.75 1.75-1.62 3.01-2.2 6.26-2.36 9.63-.05 1.11-.21 2.21-.41 3.3-.22 1.23-.68 1.59-1.86 1.76-.87.12-1.57-.14-2.1-.84-.24-.31-.4-.7-.68-.97-.2-.19-.57-.37-.81-.32-.24.06-.53.38-.59.64-.14.53-.17 1.09-.19 1.64-.06 1.51-.05 3.02-.15 4.52-.12 1.82-.46 3.63-.45 5.45 0 3.65.24 7.3.77 10.91.32 2.16.2 4.26-.64 6.32-.54 1.32-.91 2.71-1.33 4.07l-1.66 5.71c-1.15 3.96-2.83 7.76-3.5 11.87-.07.42-.48.78-.73 1.17v10.49c.24.66.62 1.3.71 1.98.29 2.24 1.08 4.31 2.04 6.32m77.69 118.04c-2.53-.15-5.05-.43-7.58-.64-2.69-.22-5.37-.5-8.06-.6-1.41-.05-2.85.14-4.26.38-3.2.54-5.48-.72-7.36-3.26-2.33-3.15-4.22-6.52-5.75-10.12-2.24-5.22-3.68-10.66-4.29-16.29-.26-2.44-.2-4.92-.2-7.38 0-2.22.14-4.44.2-6.67 0-.03 0-.06-.02-.09-.04-.09-.14-.19-.2-.28-.56.5-.77.69-1 1.59-.07.27-.14.6-.22 1.03l-.29 1.58c-.26 1.48-.54 2.97-.65 4.47-.11 1.57-.03 3.16-.03 4.72-1.46-.64-5.09-3.2-6.49-4.42-2.71-2.35-4.47-5.34-5.96-8.53-.97-2.08-1.23-4.23-.5-6.48.76-2.34 1.41-4.72 2.11-7.08.95-3.2 1.66-6.47 1.95-9.79.19-2.21.14-4.45.02-6.67-.17-3.01-.56-6-.77-9.01-.4-5.65-1.6-11.15-2.99-16.62l-2.83-11.32c-.86-3.95-1.58-7.93-2.24-11.92-.35-2.14-.02-4.29.52-6.37.21-.81.61-1.67 1.17-2.28 1.02-1.1 2.19-2.07 3.36-3.01 1.24-1 2.68-1.31 4.37-.98.27.54.59 1.08.81 1.66 2.55 6.52 5.54 12.85 8.91 18.96 4.72 8.56 7.95 17.65 10.24 27.1 1.37 5.66 3.34 11.1 5.65 16.42 1.19 2.75 3.16 4.93 5.13 7.11.51.57 1.25.97 1.46 1.94-3.08 1.62-6.47 2.49-9.68 4.21q1.37.29 3.69-.47l3.84-1.29 3.6-1.32 4.88 4.92c-.57.3-.94.55-1.35.7l-6.28 2.26c-.96.36-1.89.83-2.82 1.26-.21.09-.4.21-.66.34.82.58 1.32.15 1.8-.02l7.86-2.77c.45-.16.89-.33 1.35-.47.73-.22 1.38-.14 2 .38 1.39 1.18 2.82 2.31 4.37 3.58-.4.36-.67.75-1.05.93l-6.75 2.98c-.63.28-1.23.61-1.76 1.09 3.88-.55 7.24-2.45 10.75-4.14.58.22 1.15.47 1.75.67 1.89.64 3.79 1.1 5.83.71 1-.19 2.04-.12 3.61-.2-.74.48-1.01.7-1.31.84l-5.23 2.31c-.32.14-.57.44-.72.97.51-.06 1.03-.06 1.53-.18 3.17-.77 6.24-1.86 9.2-3.21.94-.43 1.93-.76 2.82-1.27 2.04-1.15 4.22-1.75 6.52-2.08 3.62-.52 7.11-1.56 10.52-2.92.3.62-.22.75-.47.93-4.31 3.14-8.92 5.81-13.61 8.32l-12.44 6.55c-.75.39-1.51.75-2.33 1.77.78-.1 1.16-.09 1.5-.21 1.64-.61 3.29-1.18 4.88-1.91 6.57-3.03 12.95-6.43 19.03-10.36 3.21-2.07 6.26-4.34 8.95-7.09.6-.62 1.35-1.1 2.06-1.59l5.15-3.44c2.11-1.35 3.43-3.28 4.19-5.61l2.45-7.71c.33-1.06.6-2.15 1.66-2.95.92.38 1.63 1.07 2.3 1.9-.22 1.31-.8 2.46-1.41 3.54-1.28 2.28-2.58 4.57-4.1 6.7-4.16 5.82-8.67 11.36-13.51 16.63-2.26 2.45-4.43 4.98-6.64 7.47-.1.11-.12.29-.19.46.67.4 1-.17 1.4-.49 3.4-2.77 6.29-6.05 9.14-9.36 3.9-4.51 7.53-9.23 10.88-14.16 2.11-3.09 3.9-6.35 5.22-9.73.99-.46 1.44.21 2.13.56-.14.59-.16 1.16-.39 1.64-1.24 2.57-2.41 5.19-3.83 7.66-3.87 6.78-8.46 13.07-13.39 19.11l-12.02 14.48c-.54.65-1.18 1.25-1.04 2.36.35-.31.7-.61 1.03-.93 10.05-9.72 18.54-20.68 25.78-32.62 1.81-2.99 3.45-6.08 4.61-9.39.17-.48.48-.92.74-1.42.77.57.42 1.14.25 1.59-.7 1.86-1.44 3.7-2.22 5.53-2.38 5.55-4.8 11.08-8.03 16.21-1.99 3.16-4.11 6.24-6.16 9.35l-1.8 2.75c.52.56.81.19 1.04-.07 5.06-5.77 9.32-12.06 12.33-19.15l5.99-14.53c.12-.29.27-.56.4-.81 1.31 0 1.6.15 1.47.94-.19 1.17-.46 2.33-.8 3.47-1.21 4.13-3 8.02-4.83 11.9l-2.41 5.13c.53.48.6-.04.78-.2.17-.15.3-.37.4-.58 1.41-2.84 2.89-5.65 4.2-8.54 1.54-3.4 2.74-6.94 3.41-10.63.05-.29.27-.55.46-.93l1.89.39c.12.33.3.62.31.92.06 2-.37 3.94-.82 5.88-1.1 4.65-2.74 9.12-4.44 13.57-.48 1.26-.95 2.53-1.38 3.81-.12.34-.11.73-.19 1.33 1.82-1.96 3.79-6.19 5.54-11.97 1.27-4.17 2.49-8.37 2.42-12.97l1.35-.09c.45.87.26 1.65.18 2.43-.13 1.18-.24 2.36-.33 3.55-.33 4.43-.52 8.87-1.02 13.28-.45 3.97-1.77 7.74-3.44 11.36-2.89 6.28-5.99 12.48-9.87 18.21-2.74 4.04-6.21 7.47-10.41 10-6.9 4.14-14.06 7.71-21.93 9.68-3.93.98-7.92 1.65-11.92 2.3-3.53.57-7.07 1.1-10.66.88M70.5 126.56a42.77 42.77 0 0 1-7.03-4 14.24 14.24 0 0 1-4.03-4.33c-.91-1.51-.75-2.15.74-3.15l6.16-4.06c2.19-1.38 3.89-3.21 5.46-5.24 3.8-4.93 6.99-10.22 9.47-15.93.53-1.23 1.29-2.36 1.99-3.52l5.05-8.36c2.43-4.13 5.22-7.99 8.82-11.19 4.24-3.77 9.24-6.15 14.71-7.52 1.05-.26 2.12-.49 3.16-.8 1.85-.54 4.99-.62 7.4-.21-.27.97-.95 1.63-1.59 2.3-3.19 3.34-6.1 6.91-8.57 10.82a85.75 85.75 0 0 0-2.76 4.73l-4.44 8.43c-.77 1.56-1.46 3.18-1.99 4.84-1.42 4.47-2.61 9-3.41 13.62-.29 1.64-.44 3.3-.61 4.96-.33 3.16-.8 6.31-.89 9.48-.08 2.52.22 5.07.52 7.59.3 2.51.82 4.99 1.27 7.65-1.51-.22-2.59-1.28-4.19-1.01.27.38.39.68.62.85.63.48 1.25 1.1 1.97 1.31 2.17.63 2.81 2.3 3.31 4.22.48 1.83 1.12 3.62 1.73 5.54-1.75.18-3.33-.95-5.3-.44.41.38.6.65.85.76 1.16.51 2.31 1.13 3.53 1.43 1.56.38 2.45 1.22 2.93 2.74.38 1.19.99 2.31 1.57 3.62-2.31.53-4.11-1.26-6.58-1 .57.46.83.78 1.16.91 1.92.74 3.84 1.5 5.8 2.13.87.28 1.56.64 2.11 1.4.78 1.1 1.68 2.11 2.49 3.19.22.29.34.67.58 1.15-2.81.28-5.47-.25-8.08.29.1.69.54.72.91.77l8.03.99c.77.1 1.59.24 2.26.6 1.26.67 2.37 1.6 3.63 2.26 1.24.65 2.6 1.09 4.11 1.71-3.94.82-7.67 1.39-11.47 1.6-3.74.2-7.47-.11-11.75-.27.64.58.78.81.95.85 1.79.35 3.57.85 5.38.96a50.4 50.4 0 0 0 11.63-.64c5.65-.97 11.14-2.54 16.61-4.21l3.87-1.19c1.24-.36 2.49-.36 3.69.09.14.76-.44.85-.81 1.05-3.21 1.76-6.67 2.97-10.08 4.26-7.99 3.01-16.28 4.79-24.66 6.26-1.06.19-2.18.24-3.42.93.48.24.72.46.97.47 1.03.03 2.07.05 3.1-.01 9.06-.55 17.64-3.03 26.02-6.38l3.31-1.34c2.72-1.1 5.4-2.31 7.83-4.27l2.3 3.21c-3.98 2.54-8.16 4.44-11.91 7.07 2.37-.35 4.35-1.61 6.39-2.7 2.02-1.08 4-2.23 6.1-3.4 1.21 1.85 2.21 3.69 3.05 5.79-4.37 3.43-8.94 6.22-13.9 8.43-4.93 2.2-10.08 3.72-15.35 4.76.14.9.67.81 1.13.78 5.39-.32 10.44-1.87 15.27-4.24 4.36-2.14 8.46-4.72 12.26-7.76.37-.3.75-.58 1.11-.85 1.59.99 2.56 2.19 4.48 5.51-.45 1.05-1.44 1.59-2.36 2.19-3.87 2.54-8.07 4.43-12.35 6.14l-6.67 2.55c-.52.21-1.26.2-1.47.99 5.49-.53 16.26-5.43 23.62-10.73 1.05.64 1.06.64 1.64 1.76-.6 1.22-1.13 2.46-1.81 3.6-.39.65-.99 1.23-1.61 1.7-4.83 3.65-9.95 6.83-15.61 9.06-.49.19-.95.46-1.88.93.77.11 1.06.24 1.3.18 3.32-.87 6.53-2.01 9.41-3.92l5.51-3.76c.36-.24.75-.45 1.42-.84-.49 2.86-1.25 5.24-2.65 7.39-.34.51-.85.94-1.34 1.32-6.95 5.45-14.77 8.93-23.5 10.34-2.58.42-5.13 1.05-7.71 1.54-2.34.44-4.68.87-7.04 1.19-3.13.43-6-.31-8.52-2.24-1.45-1.11-2.89-2.24-4.23-3.48-3.85-3.56-7.5-7.33-10.98-11.25-1.39-1.57-2.32-3.39-3.14-5.3-2.4-5.56-4.02-11.36-5.52-17.22-2.2-8.56-5.15-16.84-9.64-24.53-2.48-4.25-4.63-8.69-6.83-13.09-1.31-2.63-2.43-5.35-3.62-8.04-.74-1.68-1.1-3.45-1.35-5.61l1.19.99c3.15 2.82 6.72 4.79 10.97 5.33.41.05.84-.1 1.31-.16-.25-.93-.94-1.02-1.48-1.27m83.07-79.85c.69.22.86-.24 1.04-.54.82-1.36 1.6-2.75 2.38-4.13.36-.62.68-1.26 1.07-1.86.74-1.14 1.76-1.74 3.16-1.8 3.02-.13 6.03-.02 9.04.25 1.42.13 2.84.32 4.27.35 1.93.05 3.81.36 5.56 1.15 4.71 2.13 9.63 3.67 14.52 5.32 2.76.93 5.32 2.48 7.99 3.7 3.34 1.53 5.89 3.95 8.11 6.82 2.96 3.83 5.99 7.62 9.1 11.33 2.86 3.4 5.84 6.71 8.83 9.99 2.11 2.31 3.78 4.91 5.23 7.65 1.6 3.02 3.19 6.05 4.58 9.16 2.04 4.56 2.51 9.31 1.07 14.17l-2.31 7.67-4.85-2.02v-5.19c.02-2.5-.48-4.89-1.53-7.16l-3.4-7.35c-2.42-5.02-6.3-8.49-11.46-10.53-.5-.2-.98-.41-1.54-.65.62-1.67 1.82-2.95 2.07-4.63-.55-.37-.77.08-.96.35-.67.99-1.35 1.97-1.9 3.02-.72 1.38-1.81 1.87-3.48 1.72.1-.54.13-.99.27-1.4l1.4-4.04c.11-.34.05-.74.08-1.43-1.29 1.04-1.6 2.28-2.1 3.4-.51 1.15-.96 2.32-1.51 3.64-1.35-.77-2.25-1.76-3.41-2.7.24-1.12.54-2.25.71-3.41.17-1.15.62-2.29.38-3.77-.36.36-.66.51-.72.74-.37 1.3-.68 2.61-1.04 3.91-.12.44-.31.85-.53 1.45-.69-.34-1.24-.59-1.77-.89-.48-.27-.92-.59-1.45-.93.32-2.45 1.34-4.73 1.49-7.6-1.41 1.14-1.38 2.45-1.72 3.58-.37 1.2-.71 2.41-1.1 3.76l-3.39-.57c-.21-.04-.4-.24-.67-.41.68-2.5 1.99-4.79 2.52-7.48q-1.05.71-2.17 3.52l-1.5 3.77c-1.71.06-3.13-.65-4.82-.88 1.01-3.6 2.74-6.68 3.27-10.11-.67-.29-.81.21-.92.5l-2.97 7.53c-.2.52-.42 1.03-.65 1.6-1.52.5-2.93.12-4.31-.41-.23-1.98 1.32-3.83.15-5.88-1.43 1.63-1.49 3.67-2.37 5.31-.86.46-1.55.06-2.31-.34-.37-2.86 1.27-5.53.93-8.73-.44.46-.8.66-.87.94-.4 1.45-.75 2.92-1.07 4.39-.2.93-.33 1.87-.48 2.75-1.23.78-2.42.21-3.71.51-.39-4.16 1.49-7.88 1.27-12.29-1.52 2.1-1.73 4.16-2.13 6.11-.41 2-.6 4.05-.89 6.12-1.32.51-2.53.45-3.81.11-.37-2.02.45-3.83.6-5.7.14-1.79.57-3.55.21-5.46-.21.37-.53.72-.61 1.12l-1.43 7.48-.47 2.51c-1.05.76-2.18.74-3.22.96-.63-.46-.34-1.03-.27-1.55.34-2.61.47-5.22.16-7.84-.04-.3-.18-.59-.3-.88-.02-.04-.15-.05-.39-.11-.85 3.53-.5 7.16-.9 10.86l-3.3 1.58c-.48-1.4-.15-2.65-.1-3.86.07-2.14.26-4.27.43-6.41.06-.79.21-1.57.23-2.36 0-.23-.25-.47-.52-.95-.83 2.24-.96 4.29-1.18 6.31-.14 1.26-.12 2.54-.16 3.81-.02.64.01 1.27-.03 1.91-.11 1.56-.48 2.96-2.11 3.68-.56.25-1.03.71-1.77 1.23.19-2.55.32-4.86.6-7.18s.31-4.65.03-6.94c-.75-.02-.79.35-.81.64l-.67 9.26c-.11 1.5-.19 3.01-.36 4.5-.06.52-.28 1.08-.6 1.5-.87 1.12-1.82 2.17-2.82 3.33-.52-.52-.3-1.09-.34-1.59-.05-.63-.07-1.27-.1-1.9-.02-.55 0-1.11-.04-1.67-.06-.63-.19-1.26-.27-1.88-.07-.55-.08-1.11-.16-1.66-.09-.63-.22-1.25-.33-1.88l-.29-1.64c-.13-.62-.25-1.25-.42-1.86-.14-.51-.34-.99-.5-1.46-.66.08-.51.45-.48.73l1.04 9.7c.21 2.45.29 4.91.4 7.37.02.39 0 .81-.12 1.17l-1.5 4.59c-.49-.9-.48-.9-.6-1.93-.07-.63-.17-1.26-.25-1.89l-.26-2.13c-.1-.71-.25-1.41-.37-2.11l-.32-1.88-.32-2.12c-.12-.7-.27-1.4-.42-2.1-.14-.62-.27-1.24-.45-1.85-.19-.67-.43-1.32-.64-1.97-.65.11-.69.5-.62.9l1.77 11.04 1.27 8.48c.1.7.16 1.45 0 2.13-.65 2.83-.43 5.69-.46 8.55 0 .77 0 1.55-.08 2.33-1.85-8.21-3.51-16.45-7.42-23.96-.8.1-.69.57-.59.91.49 1.68.94 3.37 1.56 5 2.09 5.43 3.51 11.04 4.88 16.68l2.35 9.73c.17.69.33 1.4.38 2.1.07.94.02 1.89-.25 2.87l-2.04-7.84c-1.98-7.04-4.46-13.91-7.38-20.62-.44-1.02-1-1.98-1.53-2.96-.06-.12-.25-.17-.39-.26-.55.21-.33.65-.21.96l2.97 8.04c2.71 6.88 5.27 13.8 6.96 21.01.42 1.77.66 3.59.9 5.39.08.58-.09 1.19-.18 2.19-1.07-1.25-1.16-2.47-1.63-3.5-.53-1.15-.96-2.35-1.42-3.53l-1.24-3.35-1.41-3.54c-.47-1.09-1.01-2.16-1.5-3.24l-1.58-3.47-1.54-3.22-1.68-3.42c-.51-1.08-.96-2.18-1.45-3.26l-1.62-3.45c-.51-1.04-1.03-2.08-2.04-2.88.1.5.11 1.04.3 1.5 1.14 2.79 2.23 5.61 3.49 8.35l6.48 13.54c.88 1.87 1.6 3.8 2.37 5.72.14.34.18.73.35 1.39-1.39-.84-2.45-1.67-3.65-2.14-1.16-.45-2.46-.53-3.92-.81-4.49-7.04-8.97-14.33-13.09-21.98-.37 1.02-.39 1.03-.15 1.56 1.48 3.35 3.14 6.6 5.11 9.69l6.42 10.04c.25.39.43.83.66 1.27l-2.93 3.37c-2.33-3.67-4.2-7.51-6.76-10.93-.59.36-.27.74-.12 1.02 1.68 3.06 3.33 6.15 5.13 9.14.94 1.56 1.62 3.06 1.17 4.93-.12.51.03 1.09.07 1.96-1.89-2.09-3.33-4.21-4.93-6.19-1.62-2.02-3.14-4.13-4.88-6.07-.57.5-.2.84-.03 1.14 1.51 2.72 3.48 5.12 5.41 7.55l4.08 5.28c.79 1.03 1.32 2.15 1.4 3.48.05.76.28 1.51.54 2.76-3.46-3.59-6.16-7.2-9.8-10.04.06.26.03.59.18.79 1.33 1.78 2.61 3.6 4.06 5.28 1.97 2.28 4.1 4.42 6.11 6.67.9 1 1.69 2.1 2.49 3.18.9 1.21 1.73 2.48 2.65 3.67.53.69 1.09 1.43 1.8 1.88 1.94 1.22 3.31 2.89 4.45 4.84.59 1 1.47 1.82 2.22 2.73-.47.35-.67-.02-.85-.21l-4.51-4.91c-.65-.7-1.3-1.4-2-2.04l-9.3-8.53c-2.12-1.91-4.46-3.53-6.79-5.14-.54.6-.13.88.12 1.12 2.06 1.99 4.08 4.01 6.21 5.91 5.93 5.29 11.78 10.66 17.12 16.55.72.79 1.51 1.58 1.97 2.91-.51-.11-.82-.11-1.07-.23-2.84-1.41-5.84-1.38-8.86-.9-1.17.19-2.31.56-3.46.88-1.53.43-3.06.83-4.57 1.34-3.47 1.16-6.57.44-9.39-1.77-.81-.64-1.64-1.27-2.35-2-3.72-3.87-6.75-8.17-8.76-13.21-2.45-6.15-4.43-12.42-5.46-18.96-.38-2.42-.58-4.89-.68-7.34-.07-1.57.15-3.17.31-4.74.26-2.6.67-5.2.83-7.81.25-4.08 1.38-7.97 2.34-11.9.89-3.64 2.12-7.15 3.97-10.43 1.48-2.63 2.83-5.33 4.24-8 2.66-5.02 6.14-9.44 9.96-13.61 1.45-1.58 2.94-3.13 4.29-4.79 2.47-3.05 5.44-5.55 8.45-8.01l4.86-3.84c2.76-2.28 5.95-3.66 9.41-4.4 1.14-.24 2.37-.2 3.55-.1 1.03.09 1.4.8 1.2 1.88-.15.78-.36 1.55-.46 2.33-.04.35.11.72.17 1.01m132.51 92.13c.02 1.96.71 3.74 1.64 5.42a26.74 26.74 0 0 0 4.44 5.88l3.21 3.19c.71.67.96 1.44.69 2.37-.73 2.49-1.96 4.75-3.85 6.47-1.13 1.03-2.74 1.55-4.16 2.25l-7.1 3.37c-.25.12-.44.36-.75.62q1.31.28 3.97-.54l3.75-1.14c.52.63.1 1.05-.03 1.46-.87 2.8-1.9 5.56-2.66 8.4-.9 3.39-2.66 6.24-4.86 8.91-4.1 4.97-9.32 8.6-14.46 12.33-1.34.98-2.79 1.83-4.26 2.6-3.3 1.72-5.91 4.25-8.44 6.91-1.47 1.55-3.07 2.98-4.68 4.39-1.67 1.47-3.43 2.83-5.13 4.26-1.43 1.2-3.03 2.02-4.87 2.38-1.72.34-3.41.79-4.94 1.67-.98.56-1.98.4-3.01.2l-17.3-3.31c-2.17-.44-4.3-1.1-6.45-1.66-1.23-.32-2.44-.73-3.69-.96-3.13-.58-6.16-1.55-9.19-2.48-3.19-.98-5.8-2.91-8.28-5.05-.41-.36-.81-.79-1.07-1.27-1.23-2.22-2.48-4.44-3.57-6.73-.61-1.29-.83-2.72-.35-4.18.19-.59.23-1.23.36-1.97l7.11-1.42c.14.09.24.11.27.17 2.11 3.92 5.44 6.56 9.21 8.73 4.43 2.55 9.17 4.37 14.02 5.9.27.08.57.04 1.42.09-.82-.56-1.16-.86-1.56-1.04l-7.79-3.59c-2.42-1.2-4.77-2.53-7.12-3.85-2.04-1.13-3.72-2.71-5.26-4.44-.62-.7-1.29-1.41-1.33-2.62l3.8-1.8c.69-.32 1.23 0 1.7.49 2.77 2.92 6.19 4.95 9.57 7.03 4.16 2.56 8.7 4.24 13.29 5.8.2.07.44 0 .98 0-.35-.37-.49-.63-.7-.73l-6.04-2.82c-4.77-2.22-9.31-4.82-13.62-7.83-1.16-.81-2.36-1.6-3.17-3.01 1.05-.73 2.13-1.34 3.41-1.82 9.2 6.19 19.27 10.34 30.2 12.33 3.01.55 6.04 1.09 9.11 1.18.1-.74-.31-.82-.69-.91l-9.72-2.36c-5.17-1.26-10.35-2.51-15.22-4.74-3.46-1.59-6.85-3.34-10.26-5.05-.63-.32-1.19-.77-1.91-1.23.6-.77 1.4-1.12 2.13-1.46.52-.24 1.27-.27 1.84-.1 4.99 1.47 10.1 1.93 15.26 2.36 5.08.42 10.16.12 15.24.24.29 0 .58-.12.87-.19-.09-.77-.64-.72-1.07-.75l-9.51-.52c-5.54-.34-11.09-.63-16.58-1.51-1.16-.19-2.29-.55-3.68-.9 1.62-1.58 3.27-2.67 4.92-3.73.49-.31 1.21-.29 1.84-.33l10.45-.64 8.79-.47 7.12-.49c.47-.03.93-.1 1.24-.76-2.29-.43-4.49-.17-6.67-.21a114.1 114.1 0 0 0-6.67.02c-2.22.08-4.43.33-6.65.44-2.17.11-4.32.71-6.82.41.38-.49.52-.76.74-.94 1.66-1.39 3.46-2.47 5.63-2.92 5.76-1.17 11.46-2.57 17.05-4.43 5.96-1.99 11.85-4.15 17.34-7.24 2.42-1.36 4.7-2.96 7.04-4.47.25-.16.42-.43.64-.65-.52-.65-.91-.16-1.27.01l-8.96 4.46c-8.77 4.4-18.06 7.41-27.51 9.93-.21.06-.44 0-1.06 0 3.7-1.79 5.97-4.74 8.74-7.1.92-.79 1.82-1.44 3.03-1.76 1.68-.45 3.32-1.08 4.95-1.73 9.24-3.65 18.65-6.77 28.19-9.53 2.67-.77 5.32-1.62 7.97-2.46.4-.13.75-.4 1.04-.94-.51 0-1.04-.07-1.54 0-7.72 1.18-15.2 3.33-22.5 6.07-4.98 1.86-9.88 3.94-14.82 5.92l-2.63 1.03c-.08-.1-.16-.15-.17-.22s.02-.16.06-.23c.72-1.41 1.42-2.84 2.2-4.22.21-.38.66-.69 1.07-.87 7.43-3.27 14.99-6.12 23.03-7.56 4.37-.78 8.69-1.87 13.03-2.84.51-.11 1.15-.12 1.26-.86-1.65-.28-3.93-.06-9.61 1.02-3.2.61-6.41 1.15-9.56 1.97-3.07.8-6.09 1.79-9.06 2.91-3.03 1.14-5.97 2.54-9.08 3.88-.06-1.88.57-3.14 2.09-4.06 2.67-1.6 5.49-2.87 8.37-4 5.79-2.28 11.81-3.69 17.95-4.65l9.17-1.46c.23-.04.45-.13.78-.23-.14-.22-.25-.52-.35-.52-4.12.12-8.24.33-12.32 1.01-8.31 1.38-16.14 4.1-23.42 8.37-.33.19-.69.31-1.19.54-.24-2.34-.12-4.33 1.34-6.19 2.44-3.11 5.41-5.58 8.64-7.78 3.81-2.6 7.83-4.85 12.07-6.69 2.55-1.11 5.02-2.4 7.51-3.63.39-.19.71-.54 1.22-.93-3.28 0-11.36 3.16-16.88 6.57-5.15 3.18-10.04 6.68-13.73 12-.73-3.69.6-6.38 2.84-8.62 2.92-2.91 5.99-5.67 9.42-8 2.43-1.65 4.79-3.41 7.16-5.14.55-.4 1.22-.71 1.53-1.74-.48.15-.77.19-1.02.32-5.27 2.83-10.23 6.09-14.58 10.24-.97.93-2.04 1.76-3.02 2.68-.46.43-.86.93-1.25 1.43-.38.49-.72 1.02-1.18 1.69-.23-.46-.46-.72-.48-1-.1-1.43-.16-2.85-.22-4.28-.04-.84.32-1.56.81-2.19 1.5-1.95 2.96-3.93 4.58-5.78 1.67-1.91 3.51-3.68 5.28-5.5.76-.78 1.51-1.56 1.97-2.69-1.66.7-3.8 2.33-6.97 5.7-2.05 2.18-3.85 4.58-5.93 7.08-.1-2.52-.3-4.8.89-7.01 2.15-4.01 4.51-7.86 7.64-11.18l7.24-7.57c.26-.27.48-.58.72-.87a15.66 15.66 0 0 1-.41-.4c-6.1 4.13-10.8 9.57-14.76 16.42.1-1.63.6-2.54.91-3.5.5-1.59 1.21-3.16 1.41-4.79.45-3.62 1.8-6.9 3.3-10.15.93-2.02 1.95-4 2.91-6 .23-.48.4-.99.59-1.46-.58-.46-.85-.04-1.07.22a20.67 20.67 0 0 0-3.43 5.41l-1.85 4.4c-.58-.18-.34-.65-.44-.96-.12-.37-.15-.78-.25-1.16-.11-.46-.24-.92-.38-1.38-.11-.38-.25-.75-.37-1.13s-.35-.75-.35-1.13c0-1.11.03-2.22.18-3.32.32-2.2.75-4.38 1.1-6.58.07-.45.01-.92.01-1.47-.93 1-.95 1-1.66 3.79-.35 1.38-.63 2.78-.98 4.36-.26-.41-.5-.74-.69-1.1l-3.37-6.57c-1.6-3.04-3.77-5.67-6.06-8.22-3.34-3.73-6.56-7.55-9.82-11.34-.13-.15-.17-.38-.34-.78 4.65 1.91 9.36 3.09 13.67 5.31 4.06 2.08 7.81 4.57 10.96 7.91 3.66 3.89 7.94 7.08 12.03 10.48l13.8 11.35c1.1.91 2.11 1.94 3.08 2.99 2.37 2.57 4.78 5.1 7.01 7.78 3.35 4.05 5.25 8.85 6.68 13.85.6 2.1.61 4.26.37 6.39-.41 3.65-.42 7.29-.38 10.95M180.2 189.28c-.62.6-1.25.49-1.71.03-.84-.84-1.64-1.73-2.35-2.68-2.34-3.13-4.28-6.5-6.03-9.98-.42-.83-.87-1.63-1.46-2.73-.03 1.84.21 2.76 1.69 5.59.92 1.76 1.95 3.46 3.04 5.12 1.03 1.58 2.2 3.08 3.46 4.81-1.64.28-3.01.1-4.17-.78-1.7-1.29-3.46-2.57-4.94-4.09-2.56-2.63-4.55-5.7-6.18-9l-2.64-5.29c-.74.12-.52.6-.43.92 1.25 4.68 3.37 8.9 6.61 12.53 1.05 1.18 2.22 2.26 3.32 3.39.08.08.07.26.13.57-.53-.18-.97-.29-1.38-.46-3.81-1.65-6.79-4.35-9.44-7.47-3.95-4.66-6.87-9.9-8.99-15.61-.77-2.08-1.73-4.1-2.62-6.13-.71-1.62-1.7-3.04-3.02-4.23-.55-.5-1.18-.97-1.63-2.06l12.84 6.96c4.05 2.33 7.98 4.87 11.93 7.29.5-.32.27-.6.07-.83-1.55-1.71-3.23-3.31-5.22-4.49-3.14-1.87-6.32-3.67-9.52-5.43l-9.66-5.18c-1.72-.97-3.41-2.05-4.94-3.29-1.09-.88-1.99-2.05-2.82-3.2-1.61-2.23-3.33-4.41-4.02-7.63 1.68 2.11 3.58 3.36 5.33 4.79.67.55 1.31 1.16 1.88 1.82 1.75 2.05 3.88 3.41 6.46 4.27 3.08 1.03 6.05 2.4 9.07 3.6 1.1.44 2.22.82 3.34 1.22.45.16.92.25 1.35.44 2.14.96 4.43 1.28 6.74 1.3 2.54.02 4.82.93 7.09 1.85.68.28 1.21.95 1.87 1.48.86-.15 1.35-.93 1.93-1.56 1.36-1.47 2.88-2.75 4.66-3.67 2.51-1.3 5.1-2.03 8.02-1.51 3.75.66 7.56.95 11.39.73 3.12-.18 6.17-.7 9-2.04 1.26-.6 2.52-.95 3.9-.83 1.88.16 3.6-.31 5.27-1.16 1.26-.64 2.6-1.14 4.09-1.78.12 1.22-.17 2.18-.5 3.12l-4.13 11.68c-.44 1.27-.86 2.55-1.24 3.85-1.12 3.84-2.57 7.52-5.07 10.7-.34.44-.69.87-1.06 1.28-.15.17-.38.27-.79.55.12-1.47.85-2.55 1.14-3.74.32-1.31.78-2.59 1.08-3.9.28-1.24.51-2.49.62-3.76.11-1.24.65-2.47.14-4.03-.33.54-.65.86-.75 1.24l-3.02 11.51c-.53 1.91-1.42 3.69-2.83 5.26.08-.37.15-.74.25-1.11.11-.38.25-.75.36-1.14.13-.46.25-.92.35-1.39s.18-.94.23-1.41c.04-.39.03-.79.05-1.19.02-.46.05-.91.11-1.85-.43.54-.67.71-.72.93-.5 2.33-1 4.65-1.84 6.9-.56 1.5-1.33 2.68-3.12 3.29.69-2.1 1.41-4.06 1.95-6.06.54-1.99.89-4.02 1.33-6.04.44-2.06.34-4.13.62-6.2-.16-.03-.33-.07-.49-.1-.13.24-.32.47-.38.73l-1.97 9.32c-.7 3.02-1.65 5.97-2.92 8.81-.48 1.07-1.2 1.79-2.65 1.94.84-4.63 2.37-8.98 2.54-13.65-.25.33-.61.62-.72.99l-2.43 8.47c-.41 1.45-.82 2.9-1.16 4.37-.34 1.42-1.28 2.09-2.78 2.42-.14-1.19.68-1.98.9-2.94.25-1.08.64-2.13.92-3.2.25-1 .45-2.02.64-3.03.21-1.09.39-2.19.56-3.29.15-1.02.3-2.04.4-3.07a60.62 60.62 0 0 0 .25-3.33c.05-.98.61-1.98.06-2.96-.65.01-.66.47-.72.83l-2.4 13.36c-.52 2.84-1.47 5.51-2.89 8.03-.42.76-.95 1.24-1.99 1.3.1-2.14.3-4.23.26-6.32-.03-2.22-.28-4.43-.45-6.65-.17-2.13-.64-4.21-1.17-6.23-.73-.1-.77.34-.74.72l.58 6.64c.4 3.88.48 7.77.11 11.65-.01.15-.11.29-.22.57-.7.52-1.57.79-2.74.71l-1.66-7.12c-.63-2.46-1.34-4.9-2.04-7.34-.67-2.31-1.29-4.65-2.46-6.79-.18 2.36.67 4.51 1.18 6.72.49 2.17 1.17 4.29 1.73 6.44l1.67 6.66c-1.61-1.34-2.07-3.36-3.68-4.59.37 2.12 1.6 3.88 2.41 5.85m37.81-24.07c-.1-1.3.07-2.34.75-3.38l6.2-9.32c1.29-1.9 2.68-3.75 4-5.63.16-.22.21-.52.37-.94q-1.7.88-8.47 9.76c.8-2.51 1.19-4.58 2.51-6.33l5.25-7.08c.29-.41.82-.83.34-1.61-2.1 1.41-3.09 3.76-4.78 5.49-.58-.22-.27-.66-.27-.98 0-.39.09-.78.1-.92l3.21-3.48c1.49-1.64 3.03-3.22 5.18-5.01-.52 5.79-1.08 10.98-3.2 15.86-.25.58-.52 1.16-.72 1.76-1.93 5.76-5.6 10.27-10.09 14.21-.1.09-.27.11-.66.25 2.52-3.94 5.18-7.53 7.73-11.39q-1.49.48-7.47 8.74m1.71 3.44l3.49-3.24c2.12-2.06 3.88-4.39 5.18-7.06 1.46-3 2.81-6.04 3.87-9.2.88-2.65 1.42-5.35 1.69-8.13.25-2.6.49-5.2 1.71-7.6.35-.69.39-1.53.59-2.29.14-.52.33-1.02.5-1.53a7.7 7.7 0 0 1 .48.02c.12.85.33 1.69.34 2.54v11.42c-.11 3.5-.73 6.93-2.05 10.21-1.11 2.76-2.63 5.23-4.86 7.24l-4.54 4.2c-1.97 1.91-4.38 3.09-6.84 4.32-.3-.61.24-.68.46-.89m16.86-47.41c-.2 2.69-.53 5.36-1.62 7.87-.74 1.7-1.87 3.13-3.14 4.44-.99 1.03-2.08 1.95-3.11 2.94-.51.49-1 1.01-1.51 1.51-.68.66-1.32 1.38-2.05 1.96-3.13 2.47-6.69 4.15-10.39 5.56-.26.1-.57.06-.93-.05 3.05-1.77 5.14-4.42 7.24-7.13 2.41-3.13 5.12-6.04 7.69-9.05 1.39-1.62 1.98-3.59 2.31-5.65.32-2.03.54-4.08.83-6.12.05-.37.21-.73.33-1.11 1.29-.08 2.27.45 3.13 1.14a2.89 2.89 0 0 1 .89 1.35c.22.75.39 1.56.34 2.33m-21.37 20.13l2.43-2.8c-.37 1.39-1.14 2.44-2.25 3.18-.11-.08-.2-.11-.22-.17s0-.16.04-.21m14.47-23.85c-.2 1.73-.45 3.46-.69 5.19-.34 2.52-1.36 4.68-3.23 6.47-.97.93-1.79 2.01-2.65 3.05-.71.85-1.37 1.74-2.31 2.49.13-.27.23-.55.38-.81 3.14-5.47 5.47-11.27 7.18-17.33 1.77-6.3.73-12.28-2.43-17.91-1.24-2.21-2.68-4.32-4.11-6.41-1.18-1.73-2.95-2.86-4.55-4.16l-3.48-2.86c-.04-.03-.01-.15-.03-.34.85-.32 1.67-.07 2.44.3.93.45 1.88.89 2.7 1.5 3.15 2.35 5.94 4.98 7.34 8.83.76 2.08 1.75 4.08 2.7 6.09 1 2.12 1.5 4.3 1.48 6.67-.02 3.11-.4 6.17-.76 9.24m-11.36-25.96c2.3 1.91 3.71 4.54 5.25 7.03.75 1.21 1.37 2.51 1.96 3.81 2.11 4.6 2.29 10.53.38 15.4l-2.04-8.73c-1.06-3.95-2.71-7.62-5.21-10.89-1.45-1.89-2.83-3.83-4.23-5.76l-3.91-5.4c-.22-.31-.42-.63-.79-1.18 1.17.06 1.89.55 2.56 1.05 2.04 1.52 4.08 3.04 6.03 4.66m-4.09 3.48c1.05 1.4 2.13 2.76 3.23 4.12 2.65 3.27 4.27 7.03 5.32 11.07.44 1.69.9 3.37 1.27 5.08a33.34 33.34 0 0 1 .65 3.98c.18 1.84-.09 3.62-.95 5.31-.57 1.13-.96 2.35-1.39 3.55-1.59 4.43-4.35 8.08-7.42 11.55-1.48 1.68-3.07 3.21-5 4.36-.31.19-.66.31-1.17.54.1-.46.09-.71.21-.87l4.2-5.46c.79-.99 1.66-1.92 2.55-2.83.55-.57 1.19-1.04 1.77-1.58.68-.64 1.47-1.21 1.64-2.33l-1.37-.45c-.05-1.45 1.8-2.04 1.59-3.68l-1.42.74c-.04-.17-.16-.37-.1-.46.4-.59.81-1.16 1.25-1.71.85-1.05 1.76-2.05 2.57-3.12.56-.74 1.06-1.55 1.14-2.52-1.01-.51-1.25.99-2.23.6l.29-4.85c.26-.48 1.13-.87 1.03-1.93l-1.35-.33.98-3.08c-.08.03-.17.05-.24.07l-1.27.37h0c-1.05-.81-.74-1.64-.36-2.54.17-.41.36-.84.44-1.28l-1.59.48c-1.58-1.33.29-2.41.34-3.57-.92-.45-.93.87-1.7.62-1.37-1.05-.22-2.23.07-3.51l-1.54-.11-2.49-2.93.52-1.63c-.29-.07-.45-.17-.58-.13-.22.06-.46.16-.63.31-1.03.95-1.99.71-2.96-.09-.05-1.18 1.49-1.93.91-3.32-1.38.31-1.69 1.64-2.46 2.52l-1.02-.5.66-2.07c-.26-.06-.55-.22-.65-.14-.61.48-1.17 1.01-1.91 1.67-.69-.11-1.62-.16-2.51-.82.34-1.52 1.77-2.62 1.71-4.61-.55.48-.93.71-1.18 1.04-.49.63-.89 1.31-1.34 1.96-1.02 1.48-1.18 1.51-3.27.55.63-1.77 1.83-3.38 2.22-5.85-.64.64-.96.86-1.14 1.16-.63 1.01-1.22 2.04-1.8 3.08-.89 1.58-1.21 1.67-3.36.81.33-2.06 2.08-3.67 2.18-6.16-2.13 1.84-2.61 4.26-3.83 6.49l-2.34.18c.12-1.57 1.48-2.38 1.7-3.94-.42.11-.77.09-.92.25-.96 1.04-1.88 2.13-3.05 3.48a57.11 57.11 0 0 1-1.23.27l-1.83.4c1.18-2.88 2.91-5.28 3.11-8.32-.3.32-.68.6-.87.98-.85 1.61-1.64 3.26-2.48 4.89-.29.55-.67 1.05-1.01 1.58-.21.89-.4 1.8-1.66 1.91l1.6-1.96c.34-1.4.69-2.81-.39-4.07l1.17-3.51c-.58.31-.89.38-1.05.57-.41.48-.86.98-1.09 1.55-.73 1.8-1.43 2.05-3.23 2.41-.48-.48 0-.87.17-1.23.41-.86.92-1.67 1.35-2.51.12-.24.12-.55.21-1.05-1.1.42-1.6 1.13-2.04 1.84-.54.88-1.06 1.77-1.48 2.71-.49 1.08-1.3 1.45-2.58 1.52.52-2.34 2.03-4.21 2.16-7.03-2.27 2.52-2.73 5.34-4.03 7.86-.79.46-1.7.87-2.91 1.09.34-1.98 1.43-3.6 1.6-5.49-.89.02-.94.62-1.12 1-.68 1.43-1.27 2.91-1.94 4.35-.26.56-.51 1.24-.97 1.58-2.04 1.5-4.15 2.89-6.53 4.53.41-2.24 1.17-4.04 1.82-5.85.66-1.84 1.4-3.66 2.31-6.01-.69.44-.97.53-1.11.72-1.44 2.02-2.49 4.24-3.24 6.6-.53 1.66-.96 3.36-1.53 5.01-.25.73-.62 1.48-1.12 2.05-1.11 1.24-2.34 2.37-3.54 3.53-.16.15-.4.22-.76.41-.07-2.05.65-3.83 1.04-5.64.38-1.78.98-3.52 1.55-5.25.59-1.79 1.26-3.56 1.89-5.33-.63-.35-.85.08-1 .39-.78 1.56-1.67 3.08-2.25 4.71-1.2 3.37-1.94 6.87-2.43 10.42-.21 1.53-.61 2.92-1.56 4.17-.52.69-.85 1.53-1.32 2.26-.24.36-.6.64-1.19 1.24.05-2.7.49-4.94.84-7.19.36-2.25.74-4.5.78-6.88-.16.22-.4.41-.47.65-.61 2.3-1.35 4.58-1.75 6.92-.47 2.73-.64 5.51-.93 8.27-.09.86-.02 1.75-.79 2.64-.2-.56-.44-1.01-.51-1.48-.64-4.09-.91-8.21-.67-12.34.12-1.97.45-3.94.92-5.86.57-2.31 1.34-4.57 2.1-6.82.67-1.98 1.86-3.65 3.24-5.22 3.14-3.55 7.03-5.9 11.46-7.44 1.04-.36 2.14-.68 3.23-.78 2.92-.26 5.85-.4 8.78-.58a13.85 13.85 0 0 1 4.71.52c2.46.7 4.98.94 7.5 1.25 1.26.16 2.52.34 3.76.58l7.46 1.55c1.41.3 2.72.82 3.92 1.66 2.36 1.65 4.54 3.44 6.21 5.84 1.86 2.67 3.83 5.26 5.78 7.86m-42.51 53.5l-1.27 3.26c-1.19.15-1.98-.4-2.95-.83.19-2.27 1.35-4.33 1.58-7.07-1.87 2.03-1.86 4.36-2.81 6.32-.78.51-1.61.45-2.6.2.32-2.33 1.48-4.35 1.95-6.57-.63-.23-.76.24-.89.53l-2.68 5.88c-.61.3-1.15.13-1.71-.46.38-2.33 1.68-4.49 1.68-7.02-.26.36-.59.68-.76 1.08-.5 1.17-.94 2.36-1.4 3.54-.2.52-.32 1.08-.58 1.56-.12.22-.56.46-.74.4-.32-.11-.77-.45-.79-.71-.04-.7.07-1.42.22-2.11l1.47-6.74c.08-.4-.01-.85-.04-1.6-1.11 1.05-1.22 2.19-1.54 3.21-.36 1.13-.64 2.29-.93 3.44-.27 1.06-.51 2.13-.87 3.64-.44-1.05-.39-1.72-.4-2.37-.03-3.59.58-7.1 1.16-10.63.56-3.36.91-6.76 1.39-10.13.27-1.88.61-3.75.97-5.94.78 1.39.94 2.63 1.17 3.85.31 1.64.56 3.28.83 4.93.24 1.45.84 2.7 1.76 3.85 1.76 2.17 3.75 4.05 6.09 5.63 3.32 2.23 6.84 3.99 10.58 5.37 1.72.63 3.46 1.18 5.29 1.33 1.53.13 2.97.54 4.35 1.16 2.38 1.07 4.8 1.31 7.42.99 3.43-.42 6.72-1.1 9.78-2.76.1-.05.28.04.59.09-.41 1.21-.96 2.32-1.67 3.6-4.66 1.23-9.28 1.59-13.98.96-1.57-.21-3.14-.51-4.72-.57-2.26-.09-4.4.48-6.4 1.55-2.41 1.29-4.53 2.92-6.27 5.22l-1.99-1.81c.56-2.41 1.37-4.71 1.65-7.4q-1.08.99-1.94 3.18m-21.79-26.75c.2 2.8-.22 5.53-.77 8.26-.02.12-.2.2-.36.35-.46-1.89.07-3.93-.99-5.83-.52 1.43-.7 2.69-.47 4.09.34 2.1.48 4.24.49 6.45-.18-.43-.45-.85-.54-1.3-.5-2.41-1.02-4.81-1.41-7.24-.15-.92-.08-1.92.12-2.83.69-3.02 1.71-5.95 2.96-8.79.16-.36.32-.74.56-1.04 2.42-3.12 4.43-6.51 7.43-9.22 2.9-2.61 5.8-5.17 8.97-7.43 2.67-1.9 5.53-3.41 8.65-4.44l6.32-2.12c.35-.12.75-.1 1.06-.14.56.67.2 1.15-.09 1.61-1.09 1.71-2.74 2.85-4.28 4.1-.27.22-.75.27-1.12.24-5.56-.49-9.74 2.22-13.54 5.82-.85.8-1.49 1.82-2.76 2.16-.41.11-.76.79-.96 1.28-.36.88-.68 1.79-.85 2.72-.41 2.17-1.58 3.93-2.92 5.94-.18-2.69 1.13-4.99.61-7.78-.43.62-.76.95-.9 1.35-.67 1.8-.99 3.7-.94 5.6.04 1.81-.22 3.44-1.31 4.93-.5.68-.76 1.53-1.28 2.6-.64-2.53.15-4.79-.3-7-.82.14-.88.73-.99 1.25-.47 2.11-.54 4.25-.39 6.4m39.8-23.5c1.95-.92 3.99-.89 6.07-.56 2.03.32 4.09.54 6.1.94 2.65.53 5.26 1.24 7.44 2.96 1.94 1.53 3.2 3.55 3.9 5.86 1.47 4.85 2.07 9.79.95 14.8-.64 2.88-1.79 5.58-3.64 8 .58-1.28 1.22-2.54 1.71-3.85.5-1.33.9-2.71 1.26-4.08.36-1.36.68-2.75.12-4.4-1.04 2.78-.98 5.65-2.39 8.27-.59-1.65-.7-3.08-.24-4.67.46-1.58.56-3.27.79-4.92.03-.19-.15-.4-.25-.63-.78.89-.72.9-1.22 3.16-.25 1.13-.15 2.39-.95 3.44-.89 0-1.5-.41-1.99-1.15.69-2.27 1.98-4.4 1.96-7.42-1.54 2.05-1.78 4.15-2.9 6.27-.43-1.57-.18-2.71.08-3.82.57-2.5.7-5.03.6-7.57-.02-.53.05-1.15-.74-1.39-.58 1.22.15 2.71-.8 3.97-.71-.59-.79-1.34-.8-2.11-.01-.79 0-1.59-.07-2.38-.03-.36-.25-.69-.53-1.42l-1.06 2.44c-.74-.15-.95-.69-1.05-1.36-.17-1.1-.34-2.2-.58-3.28-.07-.32-.37-.59-.67-1.05-.74 1.44.05 2.72-.31 3.96-.88.08-1.25-.42-1.37-1.2l-.5-3.39-1.07.74c-.72-.14-1.09-.54-1.23-1.26-.16-.84-.42-1.66-.74-2.94-.39.71-.68 1.01-.68 1.3 0 .86.13 1.72.21 2.56-.23.21-.38.41-.58.51-.27.13-.59.19-.82.26-1.05-.61-.35-2.13-1.66-2.67l-.4 2.35h-1.37l-.24-3.3c-1.24.88-.83 2.16-1.34 3.25l-4.87.94c1.86-2.24 3.55-4.07 5.9-5.17m-1.12-1.48c2.19-2.77 5.64-3.11 8.52-.73-1.58-.12-3.06-.4-4.51-.28-1.36.11-2.69.66-4.01 1.01m23.44 34.48l1.82-3.57c1.64-3.15 2.64-6.52 2.7-10.03.07-4.04-.33-8.11-1.84-11.92-.91-2.29-2.24-4.39-4.29-5.9-.17-.13-.3-.32-.58-.62 1.92.28 3.29 1 3.98 2.73.26.66.58 1.3.86 1.96.7 1.6 1.34 3.23 2.1 4.79 2.24 4.59 2.46 9.29.9 14.11-.15.45-.31.91-.54 1.32-1.44 2.55-3.02 5.01-5.12 7.13m4.41-1.32c-.3 3.22-2.2 6.12-5.36 7.98 1.3-3.25 3.52-5.42 5.36-7.98m-15.93 2.63c-1.06.75-.71 2.08-1.49 2.98l-1.7-.61-.4-2.38-1.61 1.71-3.81-2.17c.82 0 1.19-.06 1.54 0 2.66.53 4.65-.46 6.03-2.71 1.08-1.75 2.08-3.54 3.13-5.31.12-.2.26-.38.55-.8l.13 11.45c0 1.33-.46 1.53-2.12 1.12-.18-1.02.52-2.14-.25-3.29m-9.31-7.3c-.37.42-.67.64-.8.93-.43 1-.79 2.03-1.18 3.04-1.51-.44-1.57-.47-1.4-1.5.15-.91.35-1.79-.04-2.91-1.06.96-.8 2.22-1.41 3.27-2.1-2.34-2.5-5.42-3.96-7.98.66-.41.86.08 1.1.3 1.34 1.22 2.93 1.85 4.72 2.05 1.34.15 2.67.38 4.01.45 3 .16 5.61-.77 7.72-2.98.65-.68 1.35-1.31 2.39-2.32-.6 2.63-1.13 4.73-2.4 6.59-.65-.2-.34-.64-.36-.96-.02-.38 0-.77 0-1.41-1.22 1.03-1.02 2.5-1.81 3.47h-1.03l-2.69 4.86c-.75-.15-.63-.59-.53-.95.26-.9.67-1.76.65-3.04-.45.35-.8.5-.94.76-.42.76-.71 1.59-1.14 2.35-.33.6-.82.7-1.41.08-.02-1.25.9-2.47.51-4.11m-30.1-11.1c.08.93.19 1.86.14 2.81-.91-1.76-1.48-3.58-1.03-5.57.78-3.46 2.82-6.06 5.75-8.45.31 2.28.68 4.25-.94 6.01l-.73-2.24c-.01-.04-.14-.04-.36-.09-.08.25-.24.5-.25.76-.03.95-.07 1.9-.01 2.84.09 1.47-.29 2.8-1.18 4.17l-.76-2.97c-.36.54-.66.8-.69 1.08-.06.54.01 1.1.06 1.64m2.72 1.39c.62-1.88 1.4-3.71 2.15-5.54.16-.39.51-.7 1.09-1.48-.29 2.25-.51 3.99-1.15 5.6-.79 2-.82 4.05-.57 6.1.23 1.96.71 3.9 1.1 5.84.34 1.64.92 3.19 1.74 4.67.37.66.84 1.34.69 2.2-.24-.05-.45-.02-.51-.11-1.8-2.32-3.6-4.65-4.05-7.69-.17-1.1-.42-2.18-.68-3.26-.5-2.14-.49-4.27.2-6.35m4.54 7.26c.25 1.07.31 2.17.07 3.42-1.57-3.85-1.77-8.35-.61-11.94.29-.9.62-1.81.74-2.74.42-3.43 2.49-5.89 4.87-8.18-1.6 2.63-3.07 5.33-4.04 8.26-1.22 3.64-1.91 7.34-1.02 11.19m-.97-21.26c2.35-1.99 4.99-3.18 8.48-3.38-3.44 1.61-5.84 3.86-8.06 7.06l-.41-3.68m5.71 6.65c.04-.19.02-.39.1-.45l3.49-2.48 1.15-.78c-.47-.58-.7-.73-1.28-.93-.06-.8 1.43-1.79 3.61-2.35-.16.44-.25.8-.42 1.13-.6 1.12-1.16 2.26-1.85 3.32-.91 1.39-1.92 2.72-2.92 4.05-.86 1.14-1.97 1.98-3.39 2.51.53-.64 1.05-1.3 1.61-1.92.58-.64 1.22-1.22 1.53-2.4l-1.62.3m5.89-.42c.24-.91.56-1.83 1.04-2.63 1.05-1.76 1.8-3.7 3.52-5.54-1.1 2.52-1.95 4.64-2.95 6.69-.99 2.04-.84 4.16-.66 6.29.12 1.41.49 2.8.62 4.21.23 2.48 1.06 4.78 1.83 7.11.29.89.58 1.77.59 2.83-.22-.24-.47-.46-.65-.72-.27-.39-.45-.85-.76-1.2-2.11-2.4-2.47-5.38-3-8.36-.53-2.95-.34-5.83.43-8.68m21.18 1.23c1.37 1.62 1.89 3.47 1.55 5.53-.11.66-.46 1.37-.9 1.88-.92 1.07-1.98 2.02-3.22 3.26-.15-.94.32-1.29.51-1.71.19-.43.43-.85.62-1.28.21-.51.42-1.03.56-1.56.11-.42.11-.86.2-1.65l-1.39 1.5c-.97-1.15-.2-2.59-.82-3.65-.8-.11-.64.59-.91.89-.19.21-.49.42-.75.43-.46.02-.69-.35-.73-.77-.09-.85-.13-1.71-.22-2.98-.45.6-.73.85-.85 1.16-.14.36-.11.78-.2 1.16-.22.92-.34.97-1.96.89l-.36-2.68c-1.01.3-.9 1.17-1.21 1.75-.36.67-.83.91-1.6.51-.2-1.43.35-2.58 1.39-3.54 1.81-1.69 3.8-2.45 6.28-1.46 1.48.59 2.96 1.06 4.04 2.34m-3.2-5.24h.51l.27 1.85c-.48-.31-.87-.43-.9-.6-.05-.4.07-.83.12-1.25m-2.4 14.14l.31-2.44c-1.32.1-1.14 1.55-2.11 1.88-.81-.47.46-1.32-.56-1.99l-.75 1.32c-.52-.27-.88-.63-1.2-.59-1.12.14-1.11.2-1.54-.89-.03-.07-.1-.12-.14-.18q-1.31.24-1.88-1.19c.16-.13.32-.37.51-.4 2.13-.3 4.25-.19 6.31.43.73.22 1.41.67 2.01 1.15.53.42.59 1.15.35 1.75-.14.35-.61.56-1.32 1.17m.94 2.19c-1.18.72-2.39 1.04-3.66.35h-.03c-.01 0-.02 0-.03-.01-1.17-.06-2.34-.08-3.5-.21-.89-.1-1.7-.44-1.77-1.55l-1.26.26-.23-1.51-1.18.31c-.24-.34-.57-.68-.75-1.09-.41-.91-.08-1.67.59-2.34.13.05.34.07.37.16 1.01 2.53 2.94 4.02 5.41 4.94.79.29 1.55.67 2.32 1.01h.04.02l3.66-.35m-8.36-13.04c-.88.8-1.82 1.54-2.62 2.41-.84.91-1.54 1.93-2.58 3.25 0-1.51-.1-2.6.03-3.66.14-1.13.81-2.06 1.68-2.79 1.53-1.3 3.8-1.96 6.32-1.83l-2.83 2.62m-.34-11.68c-3.07.89-5.58 2.93-8.51 4.09-.21.08-.42.18-.62.27 2.48-2.12 5.35-3.59 8.2-5.1.46-.24 1.03-.27 1.55-.39.28.75-.28 1.03-.61 1.13m-29.6 19.73c.05 5.32-1.34 10.19-1.68 15.17-.35 5.08-1.66 9.98-2.72 14.95-3.94-10.73-2.27-20.65 4.4-30.12m43.03 28.81c-.02-.66-.12-1.12-.02-1.53.19-.83.41-1.64.44-2.97-.54.54-.79.71-.92.94-.39.69-.74 1.41-1.09 2.12q-1 2.03-3.77 1.62c.74-1.62 1.77-2.88 1.98-4.47-.54-.35-.76.07-.97.36-.85 1.15-1.63 2.35-2.52 3.47-.79.99-1.2.97-2.61.08.28-1.29 1.29-2.32 1.45-3.93-1.68.74-1.9 2.48-3.12 3.43l-1.45-.72c.26-1.6 1.34-2.89 1.44-4.94-1.53 1.46-1.87 3.09-2.81 4.32-.87.47-1.71.16-2.76.03l.91-1.98c.53-1.15 1.1-2.29 1.58-3.46.13-.3.02-.7.02-1.34-2.15 1.83-2.59 4.46-4.3 6.34l-1.55-.58c0-.32-.07-.57 0-.76l2.48-5.92c.14-.34.18-.71.3-1.22-1.19.69-1.22.72-2.54 3.34l-1.85 3.77-1.49-.7 1.12-4.25c.36-1.35.94-2.66.94-4.54-.46.5-.72.67-.81.91l-1.92 5.12c-.24.66-.45 1.32-.67 1.97-1.87-.34-2.05-.44-1.93-1.81.15-1.82.42-3.62.69-5.43.21-1.4.29-2.8.49-4.79-.58.64-.83.8-.92 1.02-.79 2.18-1.29 4.42-1.43 6.73-.04.7.07 1.44-.6 2.11-.71-1.13-.81-2.41-1.18-3.58-.64-1.97-.97-4-.9-6.09.06-1.67-.06-3.34.04-5a26.24 26.24 0 0 1 .58-4.23c.33-1.5 1.09-2.76 2.39-3.71 1.66-1.23 3.02-2.78 4.24-4.55-.09.88-.23 1.76-.26 2.65-.14 3.61.59 7.1 1.4 10.59.14.61.43 1.2.75 1.74.97 1.64 2.09 3.2 2.96 4.88 1.28 2.48 3.43 3.73 5.96 4.35 1.83.45 3.4 1.3 4.9 2.33 1.93 1.32 4.09 2.1 6.26 2.84.59.2 1.25.17 1.87.27.54.09 1.1.14 1.61.34 1.65.63 3.31.99 5.09.18.17.99-.27 1.57-.81 1.99-1.92 1.48-4.15 2.23-6.71 2.69m6.97-10.76c-.3.81-.74 1.57-1.16 2.32-.09.16-.38.2-.8.41-.13-4.55-1.01-8.92.02-13.55l1.83 1.54c.55.45 1.11.88 1.7 1.34-.2 2.77-.66 5.41-1.59 7.94m-59.81 6.56c-.96-.65-1.19-1.39-1.4-2.12l-2.1-7.49c-.06-.23.07-.52.12-.83.29.13.51.17.54.26l2.84 10.19m-3.49-2.25c0 .05-.08.11-.2.28-.97-.97-1.71-2.07-2.43-3.2-.71-1.11-.99-2.49-2.26-3.62 0 .58-.06.88 0 1.15.45 1.88 1.35 3.56 2.57 5.04.91 1.1 1.85 2.2 2.93 3.11 1.61 1.33 2.71 3.04 3.96 4.65-3.8-2.17-6.54-5.51-9.45-8.61-.54.34-.28.64-.13.85 1.34 1.97 2.8 3.84 4.62 5.4.71.61 1.38 1.28 2.26 2.11-2.29-.22-4.12-.87-5.57-2.32-2.14-2.13-4.36-4.15-6.69-6.06-2.45-1.99-3.69-4.7-4.01-7.84-.16-1.53.02-3.02.57-4.44.9-2.33 3.23-3.27 5.44-2.1 1.39.74 2.65 1.73 3.91 2.69.42.32.74.85.94 1.34 1.5 3.75 2.98 7.51 3.54 11.55m89.96 134.98c-.4 1.88-.58 3.76-.51 5.68.05 1.38-.22 2.69-.88 3.9-.46.84-1.07 1.54-1.83 2.16-2.47 1.99-5.07 3.84-7.22 6.2-1.54 1.7-3.02 3.47-4.53 5.21-.52.6-1.01 1.22-1.53 1.82a5.99 5.99 0 0 1-3.19 1.98c-1.7.41-3.38.92-5.1 1.15-2.19.3-4.42.48-6.63.53-4.32.1-8.55.75-12.63 2.11-2.89.96-5.84 1.47-8.84 1.75-1.1.1-2.21.24-3.31.36-.39.04-.79.11-1.18.08-2.21-.19-4.46-.22-6.62-.65-3.28-.64-5.62-2.71-7.51-5.47 1.23-1.75 2.74-3.22 3.16-5.28-.45-.47-.84-.21-1.12 0-1.05.84-2.1 1.68-3.09 2.6-.81.75-1.55 1.59-2.29 2.42-.88.98-1.98 1.31-3.23 1.08-2.5-.45-5.01-.9-7.33-1.98-1.06-.49-2.11-1.04-3.19-1.58.37-1.59 1.79-2.39 2.28-3.97-1.1.08-1.57.87-2.18 1.37s-1.11 1.12-1.76 1.79l-4.52-1.64c1.41-2.21 3.11-4.01 3.8-6.36-.58-.45-.85-.03-1.07.23-1.17 1.4-2.35 2.8-3.45 4.25-.79 1.05-1.72 1.39-3.06 1.36-4.53-.11-8.08-2.02-10.89-5.49-.45-.55-.88-1.13-1.35-1.66-1.84-2.11-3.39-4.42-4.35-7.06-1.48-4.06-4.17-7.27-7.02-10.38l-1.36-1.5c.04-.21.03-.31.07-.36s.14-.08.21-.09l13.62-1.92-4.59 4.04c.87-.07 1.25.01 1.49-.14 1.73-1.12 3.54-2.15 5.12-3.46 2.19-1.8 4.79-2.27 7.78-3.01-.4.61-.53.97-.78 1.18l-5.14 4.24c-1.56 1.23-3.16 2.4-4.74 3.61-.3.23-.55.51-.8.75.34.62.74.42 1.07.26 4.27-2.21 8.05-5.07 11.34-8.58.43-.46.88-.92 1.28-1.41.99-1.19 2.22-1.99 3.66-2.55 1.47-.57 2.88-1.3 4.29-1.95.46.46.14.8-.03 1.13-1.52 2.8-3.34 5.4-5.31 7.9-1.52 1.93-3.12 3.8-4.67 5.72-.44.55-.83 1.14-1.24 1.71.54.47.79.04 1.06-.18 3.83-3.18 6.83-7.07 9.44-11.27 1.09-1.75 2.06-3.58 3.05-5.39.51-.93 1.18-1.64 2.13-2.16 1.58-.87 3.09-1.86 4.87-2.94-.07 1.74-.85 2.96-1.36 4.24-.52 1.33-1.18 2.6-1.77 3.9l-1.66 3.7-1.74 4.12c.94 0 1.13-.53 1.39-.95 2.93-4.85 5.34-9.94 6.94-15.37.48-1.62 1.45-2.72 2.94-3.69.34 1.02.19 1.9.07 2.71l-2.63 17.17c-.27 1.64-.78 3.24-1.21 4.85-.49 1.82-.98 3.64-1.06 5.51.84.27.9-.35 1.07-.72 1.47-3.27 2.54-6.69 3.11-10.23.59-3.68 1.02-7.39 1.44-11.09.34-3.07.56-6.16.83-9.24.11-1.28.8-2.17 1.8-2.92.72.48.51 1.19.66 1.76.14.54.21 1.09.3 1.64.71 4.02.63 8.07.49 12.11-.09 2.37-.43 4.74-.65 7.11l-.5 5.21-.98 8.51c-.05.42.11.87.23 1.71.41-.57.62-.77.72-1.02 1.17-2.83 1.48-5.83 1.76-8.84.12-1.34.28-2.68.51-4 .56-3.13 1.02-6.27.89-9.46-.07-1.73-.27-3.46-.09-5.27l.49 1.26c.65 1.7 1.34 3.39 1.93 5.12.38 1.12.69 2.28.88 3.44l1.57 10.36c.16 1.08.3 2.16.71 3.27.92-.52.75-1.31.7-1.96-.14-1.98-.32-3.95-.56-5.92-.15-1.26-.44-2.5-.62-3.76-.09-.6-.07-1.21-.1-1.9l4.84 2.33c.72.35.9 1.08 1.13 1.74l3 8.54c.29.8.54 1.63 1.36 2.52.15-2.34-.78-4.13-1.24-6.01-.48-1.91-1.18-3.77-1.85-5.85 2.01.16 3.77.85 5.54 1.43.52.17.98.81 1.29 1.34.98 1.72 2 3.44 2.77 5.26.99 2.33 1.74 4.77 2.6 7.16.1.28.25.54.37.77.63-.02.51-.42.47-.68-.39-2.61-1.2-5.1-2.37-7.46l-2.89-5.7c2.19.69 4.03 1.55 5.63 2.83.53.42.88 1.13 1.18 1.76l3.17 6.93c.15.33.32.65.66.9-.08-2.62-1.25-4.93-2.15-7.71.57.38.89.53 1.14.75 2.98 2.75 5.95 5.5 8.46 8.7.24.31.54.59.83.85 1.3 1.14 2.44 1.32 3.92.48 1.03-.59 2-1.29 2.98-1.98a39.48 39.48 0 0 0 2.09-1.58c3.28-2.69 6.96-4.72 10.85-6.36l5.46-2.37c1.46-.61 2.95-1.14 4.68-1.28 0 .44.06.82-.01 1.16m78.02-84.4c2.08 4.5 2.44 9.16 1.57 13.96-.21 1.17-.56 2.32-.8 3.48-.16.77-.26 1.56-.33 2.35l-.99 10.9c-.27 2.37-.95 4.67-1.8 6.9-.49 1.28-1.15 2.46-2.15 3.4-1.56 1.47-3.11 2.96-4.8 4.27-2.76 2.14-5.55 4.24-7.85 6.92-2.21 2.58-5.26 3.07-8.39 3.17-1.68.05-3.33.13-4.95.57-.59.16-1.15.43-1.93.73 1.26 1.11 2.57.59 3.75.66 1.35.09 2.7-.04 4.05.03 1.26.07 2.48-.62 3.88-.14l1.36 8.16c.35 1.77.25 3.47-.25 5.18-.11.38-.23.76-.39 1.12-1.15 2.62-2.04 3.69-5.25 3.32-1.97-.23-3.96-.27-5.93-.42a48.87 48.87 0 0 0-11.4.46 92.93 92.93 0 0 1-10.41 1.06c-3.32.15-6.64.48-9.92 1.17l-13.78 2.75c-3.92.78-7.63 2.14-11.27 3.77-4.94 2.21-9.74 4.65-13.9 8.21-1.31 1.12-2.67 2.26-4.41 2.91-.86-.46-1.39-1.24-2.03-1.94-4.14-4.63-8.49-9.02-14.03-12.04-2.32-1.27-4.76-2.17-7.27-2.93l-7.5-2.35c-2.98-1.02-4.94-3.08-5.91-6.08l-1.26-3.85-3.81-12.56 3.63-6.62 3.61-7c1.16 1.71 1.65 3.54 2.61 5.11.94 1.56 1.88 3.13 2.91 4.64 1.07 1.58 2.2 3.12 3.38 4.62 1.13 1.43 2.29 2.86 3.56 4.16 1.3 1.33 2.46 2.83 4.1 3.8.46-.58.03-.84-.19-1.12l-8.34-10.72c-2.5-3.31-4.58-6.86-6.18-10.71-.59-1.42-.65-2.68.06-4.1.73-1.45 1.22-3.03 1.89-4.75.29.46.48.7.61.98 1.68 3.53 3.87 6.75 6.07 9.96 2.26 3.3 5.03 6.13 8.19 8.58.22.17.49.27.94.16-.26-.35-.48-.73-.79-1.03-5.24-5.28-9.55-11.24-13.17-17.74-.99-1.78-1.47-3.48-.85-5.44.19-.59.24-1.22.4-2.05 1.82 3.45 3.43 6.79 5.32 9.98 1.94 3.28 4.06 6.46 6.26 9.57 2.15 3.04 4.62 5.81 7.2 8.56.62-.71.02-.98-.21-1.28-3.64-4.62-7.16-9.33-10.33-14.29-2.62-4.09-4.88-8.37-6.96-12.75-.9-1.89-1.11-3.78-.83-5.79l.4-2.65c.28.6.47.93.6 1.28 2.39 6.52 6.21 12.12 10.92 17.17 5.58 5.98 12.08 10.78 18.98 15.07 3.18 1.98 6.58 3.52 10.08 4.85.47.18 1 .21 1.58.33-.18-.97-.9-1.08-1.43-1.35-6.74-3.45-13.08-7.52-19.11-12.08-5.6-4.25-10.64-9.06-14.64-14.88-2.62-3.82-4.85-7.83-6.06-12.35-.43-1.6-1.19-3.14-.94-4.87.05-.38.23-.73.34-1.1l.05-2.28c.51.81.49 1.57-.02 2.3.21.93.37 1.87.65 2.77 1.15 3.77 3.06 7.14 5.49 10.22.29.37.63.74 1.03.99 2.85 1.83 4.9 4.5 7.18 6.92 6.25 6.61 12.98 12.63 21.02 17.03 3.55 1.94 7.18 3.71 10.92 5.49-.24-.97-.23-.98-.76-1.29l-9.69-5.62c-6.39-3.63-12.23-7.98-17.41-13.21-1.56-1.57-3.15-3.11-4.56-4.94l4.2 1.33c2.42.76 4.88 1.41 7.26 2.29 1.78.66 3.5 1.51 5.16 2.44 9.97 5.65 20.32 10.48 31.06 14.47l4.01 1.51c.42.15.88.2 1.4.31-.07-.91-.76-.91-1.19-1.11l-9.58-4.25c-7.64-3.35-15.22-6.81-22.59-10.73-.2-.11-.38-.27-.76-.55.83-.25 1.47-.07 2.1.06l9.09 1.88 9.36 1.74c.55.1 1.11.31 1.64.25 1.09-.12 2.02.25 2.99.61 5.96 2.24 12.06 4 18.35 5.03 2.58.42 5.18.73 7.78 1.06.26.03.54-.12.82-.19-.21-.74-.76-.65-1.19-.75l-16.96-3.85c-2.47-.59-4.87-1.44-7.3-2.2-.35-.11-.67-.31-1.38-.63.93-.33 1.47-.56 2.04-.72 1.6-.45 3.22-.82 4.81-1.32.9-.29 1.7-.17 2.56.08l9.12 2.73c.82.25 1.62.56 2.49.47.03-.15.07-.22.06-.29 0-.07-.03-.18-.08-.2l-4.82-2.03c-2.07-.79-4.17-1.5-6.25-2.25-.16-.67.43-.81.74-1.11.27-.28.62-.48 1.08-.81l6.75 2.09 8.17 2.61c4.1 1.32 8.34 1.95 12.57 2.63.27.04.57-.09.84-.14 0-.21.02-.29 0-.36-.03-.07-.1-.13-.16-.16-.14-.07-.28-.15-.43-.19-.38-.1-.77-.18-1.16-.28l-9-2.3c-1.84-.49-3.66-1.07-5.48-1.62l-9.56-2.93c-.15-.05-.3-.11-.44-.18-.07-.03-.13-.09-.34-.24.19-.29.32-.66.58-.87.73-.61 1.5-1.16 2.31-1.76 6.59 1.75 13.12 3.57 19.8 4.8-1.79-1.25-3.87-1.73-5.87-2.38-2.04-.67-4.1-1.25-6.16-1.84l-6.36-1.75c1.12-1.63 2.42-2.77 3.64-3.96.38-.37 1.19-.46 1.78-.4 1.81.17 3.63.39 5.42.74 6.32 1.22 12.53 2.89 18.67 4.8a29.79 29.79 0 0 0 2.06.55c.12.03.27-.11.54-.22-1.49-1.24-3.29-1.64-4.95-2.3-1.7-.67-3.43-1.25-5.18-1.77-1.67-.5-3.38-.89-5.08-1.27a121.43 121.43 0 0 0-5.37-1.08c-1.78-.32-3.58-.56-5.46-.86.87-1.02 2.55-2.35 3.4-2.57a3.69 3.69 0 0 1 1.62-.01c2.18.45 4.34.94 6.51 1.46l7.87 1.92c.36.09.74.07 1.16.11-.11-.88-.72-.92-1.22-1.1-3.89-1.42-7.88-2.44-11.93-3.29-.43-.09-.83-.29-1.48-.51l3.69-2.63c.71-.54 1.5-.48 2.28-.43 7.63.44 15.14 1.69 22.55 3.51a23.57 23.57 0 0 0 1.86.38h.1c.11-.02.22-.09.33-.12-.8-.87-3.33-1.94-6.76-2.81-1.56-.4-3.31-.75-5.16-1.04-4.12-.62-8.28-.91-12.63-1.36.37-.36.62-.64.91-.87.99-.79 2.04-1.52 2.99-2.36 2.5-2.23 1.49-1.86 5.07-1.56l7.57.74c.93.09 1.87.15 3.02-.05-.92-1.04-2.03-.81-2.98-.99-1.01-.19-2.04-.29-3.07-.42l-2.84-.32-3.09-.23c.01-.85.58-1.24.96-1.7.61-.73 1.19-1.53 1.94-2.08.45-.32 1.22-.31 1.83-.27 1.98.12 3.95.39 5.93.48 2.14.1 4.29.06 6.43.06.3 0 .61-.11.96-.19q-.95-.88-6.57-1.35l-7.06-.61c.47-1.3 1.35-2.24 1.87-3.36l1.5-3.36c1.8-.11 3.58.26 5.38.28 1.82.02 3.63 0 5.53-.32-.28-.14-.55-.34-.85-.41-2.24-.54-4.52-.85-6.83-.87h-2.58c-.14-2.43 1.14-7.63 2.55-10.45l6.97 5.37 7.04 5.7c3.21 2.56 5.84 5.57 7.58 9.35M244.97 37.13c.43-.04.86-.13 1.28-.11 4.62.16 9.16.88 13.62 2.1 5.52 1.5 11.03 3.01 16.33 5.19 5.07 2.08 10.16 4.11 14.94 6.83 1.45.82 2.9 1.65 4.29 2.57l11.84 8.01c1.65 1.1 3.38 2.08 5.05 3.16 4 2.58 6.86 6.14 8.6 10.53 1.02 2.57 1.04 5.35.45 7.99-.7 3.17-1.79 6.25-2.72 9.37-.06.21-.26.38-.4.56-.09.65-.08 1.28.03 1.87.18.99.62 1.91 1.34 2.77 2.5 3.04 4.24 6.5 5.51 10.22.43 1.27 1.08 2.47 1.69 3.66.2.38.62.63 1.07 1.07.85-1.54-.21-2.94.09-4.33.75.45.79 1.12.78 1.73-.05 2.78 1.06 5.19 2.71 7.23 1.88 2.33 2.21 4.83 1.82 7.6-.09.63-.18 1.26-.19 1.89l-.18 11.2c-.1 2.57.34 5.07.78 7.56.58 3.24.33 6.3-1.06 9.3-1.1 2.38-2.06 4.82-3.12 7.21-1.16 2.63-3.19 4.52-5.44 6.19-1.11.82-2.42 1.21-3.75 1.45-2.21.4-4.26 1.22-6.27 2.19-1.71.83-3.48 1.55-5.27 2.18-1.33.46-2.34 1.28-3.29 2.43l-2.33-1.73c4.09-1.98 8.14-3.58 11.46-6.62-.39.04-.83-.01-1.18.14l-8.66 3.97c-1 .46-2.02.89-3.12 1.37l-5.05-3.92c5.31-.79 10.01-2.68 14.79-4.29 1.96-.66 3.73-1.77 5.39-3.01.27-.2.43-.54.9-1.16-.73.17-1.02.2-1.29.3l-15.2 5.57c-2.02.73-4.11 1.2-6.23 1.4-1.37-.73-2.53-1.65-3.67-2.92 9.95-4.16 20.08-7.6 29.45-13.18-.82-.75-1.36-.38-1.78-.21l-8.38 3.41-13.94 6.15c-.35.16-.73.26-1.04.37-.48-.33-.24-.63-.09-.87 1.33-2.08 2.46-4.26 2.96-6.49l11.44-5.71a40.3 40.3 0 0 0 7.21-4.61c.34-.27.59-.64.89-.97-.61-.49-1.04-.12-1.43.07-1.93.92-3.87 1.85-5.76 2.85-2.39 1.26-4.72 2.62-7.09 3.91a72.34 72.34 0 0 1-3.39 1.75c-2.26 1.07-2.36.62-3.51-.59-1.53-1.6-3.13-3.14-4.56-4.57-.07-1.12.62-1.52 1.11-1.98 4.86-4.54 10.28-8.24 16.48-10.72l7.56-2.89a3.1 3.1 0 0 0 1.51-1.15c-.34-.01-.69-.07-1.02-.03-3.58.46-6.95 1.59-10.22 3.07-5.79 2.61-10.82 6.3-15.35 10.72-.33.33-.54.79-.88 1.3-1.92-1.82-2.7-3.76-3.03-5.89-.07-.47.27-1.05.53-1.52 1.33-2.38 3.1-4.42 4.99-6.35 4.92-5.02 10.51-9.2 16.57-12.74l6.57-3.86c.38-.22.69-.55 1.47-1.18-.91.09-1.29.05-1.62.17-3.09 1.07-6.07 2.35-8.82 4.13-4.01 2.59-7.83 5.4-11.4 8.59-2.8 2.51-5.26 5.28-7.54 8.24-.18.23-.4.44-.82.9 0-1.33-.04-2.34 0-3.34l.42-7.6c.03-.92.23-1.73.84-2.41 1.16-1.3 2.28-2.65 3.51-3.88 2.94-2.91 6.22-5.42 9.6-7.8l4.05-2.94c.49-.37.92-.81 1.74-1.56-.74.05-1.04 0-1.25.1-4.97 2.43-9.35 5.7-13.33 9.49-1.55 1.47-2.95 3.11-4.42 4.66-.2.22-.47.37-.9.7l-.99-2.99-1.04-2.95c1.64-2.29 3.57-4.29 5.64-6.13 3.81-3.37 7.77-6.57 12.19-9.11 2.54-1.46 5.19-2.74 7.82-4.05 1.99-.99 4.02-1.89 6.02-2.83-.14-.54-.45-.76-1.04-.66-2.04.36-4.01.97-5.91 1.79-4.18 1.8-8.09 4.1-11.69 6.86-2.89 2.22-5.69 4.58-8.42 7-1.42 1.26-2.58 2.8-3.86 4.21l-1.32 1.45-2.65-4.95c-.42-.79-.32-1.52.14-2.25 1.1-1.77 2.42-3.35 4.07-4.63l7.56-5.79c.55-.42 1.07-.87 1.6-1.3-.45-.57-.8-.29-1.12-.12-2.72 1.51-5.27 3.25-7.58 5.35l-3.79 3.55c-.12-.13-.3-.24-.3-.35-.07-1.74-.18-3.48-.15-5.22.02-.67.24-1.42.61-1.99 3.11-4.83 6.57-9.37 11.29-12.78l5.59-4.06c.42-.31.8-.7 1.37-1.2-.44-.1-.68-.24-.82-.17-4.32 2.1-8.31 4.69-11.56 8.27-1.7 1.88-3.18 3.95-4.75 5.95-.39.49-.72 1.03-1.11 1.59-.85-2.16-1.09-5.17-.63-7.16 1.19-5.13 3.18-9.98 5.33-14.76.41-.91.91-1.8 1.02-3.36-2.1 2.72-3.32 5.34-4.38 8.02-1.05 2.63-1.9 5.35-2.92 8.27l-1.89-6.5c-.14-.51-.05-1.09-.03-1.63.28-6.41 2.53-12.24 5.23-17.94.29-.62.54-1.26.53-2.11-.28.19-.64.32-.83.58-2.19 2.96-3.93 6.16-4.82 9.76-.42 1.69-.7 3.42-1.06 5.13-.08.38-.21.74-.43 1.46-.34-.68-.56-1.05-.7-1.44l-2.48-6.7c-1.86-4.77-4.9-8.65-8.81-11.95-3.54-2.99-7.38-5.49-11.26-7.98-3.67-2.36-7.15-5.01-10.73-7.52-.26-.18-.56-.3-.84-.45l.24-.43m-110.85-9.4c3.93-2.94 8.38-4.61 13.28-4.56 5.84.05 11.54-.84 17.23-1.98 3.63-.73 6.92-2.26 10.13-4.04a37.48 37.48 0 0 1 4.28-2.07c2.36-.96 4.64-2.05 6.84-3.35 1.36-.81 2.79-1.51 4.22-2.2.84-.41 1.7-.84 2.85-.81-.26 2.95-1.14 5.83-.59 8.78.89-.85.96-1.96 1.23-2.98.31-1.15.6-2.31.85-3.47.24-1.07.41-2.16.63-3.31 1.12-.31 2.23-.27 3.31-.08 1.95.35 3.88.8 5.82 1.25 2.83.66 5.38 1.93 7.68 3.69 4.1 3.14 8.23 6.23 11.97 9.82 2.52 2.42 5.29 4.57 7.87 6.92 2.46 2.24 5.18 4.2 7.26 6.84.14.18.36.3.55.43 1.03.73 2.11 1.39 3.1 2.18 4.59 3.68 9.29 7.21 14.34 10.24 3.69 2.21 7.04 4.89 10.22 7.78 2.74 2.49 4.87 5.44 6.29 8.87 2.64 6.4 4.96 12.9 6.56 19.64.62 2.61.83 5.33 1.23 7.99-.65 3.25.44 6.47.17 9.72-.07.78.04 1.59-.62 2.36l-8.66-9.42c2.84-3.63 4.31-7.81 5.12-12.88-.63.64-.96.83-1.09 1.12l-3.43 7.6c-.46 1-.94 2.01-1.86 2.68-1.35-.67-5.05-3.61-6.4-5.11 1.95-3.72 3.81-7.55 4.65-11.75-.66-.34-.86.09-1.01.4l-2.86 6.03c-.66 1.43-1.24 2.91-2.16 4.37-1.92-1.33-3.61-2.72-5.2-4.36 2.83-5.71 5.87-11.28 7.3-17.47-.69-.42-.88.02-1.04.34l-3.28 6.62-3.23 6.91c-.34.71-.75 1.39-1.12 2.06-1.71-.71-5.58-3.82-6.9-5.55 2.48-3.64 4.66-7.49 6.03-11.75.06-.2-.02-.44-.04-.7-1.28.79-1.76 1.51-3.96 5.49-1.06 1.92-1.82 4.04-3.5 5.53-.99-.12-1.42-.85-1.99-1.38-.58-.54-1.12-1.12-1.71-1.72.83-2.38 2.19-4.56 2.36-7.62-1.87 2.04-2.14 4.35-3.38 6.32-2.07-1.17-3.76-2.86-5.98-4.06 1.65-4.12 3.28-8.2 3.62-12.7-.27.44-.62.85-.79 1.32l-2.85 7.84c-.3.81-.65 1.6-1.01 2.47-1.98-.29-3.44-1.42-5.22-2.13 2.59-5.24 5.08-10.44 6.12-16.38-.92.23-.99.82-1.18 1.27l-4.85 11.66c-.39.93-.93 1.8-1.43 2.74-1.96-.34-3.67-.85-5.38-1.7 1.79-5.73 4.04-11.26 5.01-17.16 0-.05-.09-.12-.25-.33-.27.38-.61.69-.75 1.07l-4.35 12.36c-.42 1.18-.58 2.46-1.36 3.63-1.34-.27-2.56-.78-3.91-1.47 1.92-4.38 3.88-8.68 5.19-13.24-.93-.22-1.02.4-1.19.76l-4.01 8.64c-.49 1.05-.74 2.26-1.68 3.1-1.31-.12-1.63-1.19-2.11-1.84l2.63-12.75c.02-.09-.15-.22-.35-.5-1.03 1.79-1.43 3.73-2.01 5.57-.6 1.87-.98 3.82-1.46 5.79-1.12-.8-2.11-1.85-2.51-2.53s-.28-1.36-.12-2.07l1.85-8.37c.1-.44.15-.9-.08-1.48-.24.33-.6.62-.7.99l-1.96 7.11c-.16.58-.36 1.16-.59 1.92l-2.98-2.45c-.08-2.03.48-4.04.64-6.08l.58-6.4c.03-.42-.17-.85-.37-1.74-1.35 2.37-1.5 4.57-1.86 6.68-.36 2.1-.51 4.23-.78 6.49-1.51-.49-2.67-1.29-3.97-2.16 1.69-6.42 3.77-12.76 3.38-19.59-.2.37-.5.72-.58 1.11l-3.11 14.43c-.23 1.08-.58 2.13-.91 3.34-2.01-.57-3.75-1.43-5.7-2.17 3.53-5.73 4.55-11.87 3.82-18.36-.03-.24-.3-.46-.54-.81-.69 1.43-.65 2.79-.83 4.11-.33 2.44-.59 4.89-1.02 7.3-.5 2.83-1.56 5.09-3.21 7.26l-2.65-.73c-.82-.25-1.68-.41-2.45-1.08 1.81-5.18 2.19-10.5 1.7-16.41-.46.69-.77.96-.82 1.28l-1.11 7.54a131.98 131.98 0 0 1-.99 5.62c-.09.44-.36.85-.59 1.35-1.8-.37-3.25-1.33-4.84-1.93-.32-3.3.36-6.5-.48-9.61-.03-.1-.25-.15-.51-.29-.91 2.95-.56 5.98-.77 8.93-1.27.19-6.23-.17-8.11-.61-.64-2.69.29-5.59-.65-8.43-.66.88-.65.88-.72 1.94-.05.71-.2 1.42-.2 2.13s.17 1.42.19 2.13c.02.7-.04 1.4-.08 2.29-1.66-.15-3.22-.05-4.88-.5-.45-2.79-.04-5.67-.96-8.35-.71.07-.7.54-.71.9l-.04 5.01c0 .78-.05 1.57-.08 2.46-1.96.5-3.99.62-5.66 2-.86-1.35-.74-2.86-1.36-4.11-.61-1.23-.81-2.7-2.18-3.9 0 .75-.08 1.21.01 1.62l1.49 6.01c.26 1.14.63 2.32-.22 3.59-1.08-.38-2.2-.71-3.25-1.18-.37-.17-.65-.68-.83-1.09-.66-1.53-1.21-3.11-1.89-4.63-.5-1.14-1.07-2.26-2.12-3.21-.15 1.51-.08 1.72 1.14 4.58.58 1.37 1.36 2.68 1.56 4.32-1.52.79-3.22.84-4.86 1.48-2.05-2.02-3.1-4.76-4.99-7.01-.16 1.43-.02 1.86 1.29 3.89.73 1.13 1.51 2.23 2.32 3.43-1.31 1.16-2.94 1.62-4.35 2.68-.48-.32-.96-.57-1.36-.91-2.09-1.73-4.26-3.34-6.83-4.27-.71-.26-1.42-.71-2.5-.39.33.39.5.73.77.88 1.25.68 2.57 1.25 3.8 1.96 1.67.96 3.03 2.28 4.3 3.87-1.23 1.56-2.89 2.47-4.47 3.63-2.53-1.65-5.01-3.33-8.18-3.22 1.04.99 2.47 1.2 3.66 1.87 1.18.66 2.36 1.29 3.11 2.58l-4.75 4.36c-1.56-.7-2.48-2.31-4.36-2.71.07 1.14.91 1.56 1.43 2.17.51.6 1.08 1.15 1.59 1.7-.79 1.63-.79 1.59-2.04 1.47-1.34-.13-2.69-.19-4.03-.24-.94-.04-1.89 0-3.1 0 .26-.64.39-1.06.6-1.43l4.99-8.95c.6-1.11 1.04-2.31 1.56-3.47 2.62-5.8 6.02-11.01 11.19-14.88M28.52 130.34c.31-2.66.98-5.3 1.69-7.9.58-2.14 1.49-4.19 2.19-6.29l2.48-7.7c.32-.98.65-1.97 1.08-2.9 1.1-2.4 1.25-4.88.94-7.46l-1.27-11.35c-.02-.16-.01-.32-.01-.48 0-.64-.03-1.27.01-1.91l.47-5.72c.89 0 1.74.06 2.59-.02.79-.07 1.56-.28 2.34-.42 2.25-.41 4.22.12 5.98 1.62 1.02.87 2.17 1.59 3.29 2.34.3.2.69.25 1.33.46-.68-2.56-2.3-3.99-4.07-5.3-1.87-1.38-3.96-1.88-6.36-1.29-.07-1.07.24-1.87.47-2.7.44-1.6.85-3.22 1.24-4.84.3-1.24.62-2.45 1.21-3.59a41.11 41.11 0 0 0 1.93-4.35c.67-1.76 1.72-3.21 3.15-4.4 2.19-1.83 4.34-3.7 6.24-5.86 1.05-1.19 2.43-2.04 3.92-2.64l10.38-4.17c1.09-.45 2.26-.92 3.13-1.67 3.02-2.63 6.69-3.89 10.33-5.28a121.97 121.97 0 0 0 6.59-2.74c1.46-.66 2.98-1.08 4.53-1.41l5.11-1.15c1.08-.21 2.19-.42 3.28-.4 2.29.05 4.59.12 6.81.92.72.26 1.56.3 2.34.27 3.44-.15 8.79.76 12.22 2.17-.11.41-.15.9-.37 1.26-1.61 2.67-2.83 5.5-3.76 8.47-.24.75-.64 1.45-.98 2.17l-3.07 6.45c-.55 1.14-1.05 2.31-2.08 3.37-.34-.5-.68-.91-.92-1.37-2.09-3.95-4.64-7.59-7.58-10.95-.72-.82-1.47-1.62-2.53-2.08 2.99 5.26 7.07 9.76 9.67 15.34l-9.04 2.95c-.22-.37-.49-.75-.67-1.16-2.42-5.73-5.28-11.21-8.93-16.25-.31-.43-.68-.81-1.02-1.22-.67.57-.18.98 0 1.33l5.35 10.65c1.02 2.06 1.97 4.16 2.94 6.25.19.42.3.88.48 1.44l-4.33 2.67c-1.86-2.93-3.48-5.84-5.58-8.44-.53.47-.26.83-.08 1.15l3.28 5.81c.42.75.8 1.52 1.18 2.24l-6.54 6.9c-.94-2.33-1.73-4.56-2.73-6.69-1.04-2.22-2.22-4.39-3.47-6.51-1.2-2.03-2.5-4.01-4.24-6.38 0 .86-.08 1.16.01 1.38.29.65.66 1.27.99 1.9 2.4 4.57 4.72 9.18 6.66 13.97a25.1 25.1 0 0 1 .42 1.11c.78 2.12.9 4.12-.66 6.04-.79.96-1.29 2.15-2.11 3.55-.88-2.38-1.52-4.46-2.42-6.43-.93-2.01-2.04-3.95-3.21-5.83a34.03 34.03 0 0 0-4.02-5.22c-.65.45-.33.81-.16 1.1l4.09 7c1.58 2.77 2.95 5.63 3.68 8.75.12.54.2 1.09.32 1.63.22 1.08-.04 2.01-.73 2.89-.73.92-1.36 1.93-2.15 3.06-.45-.46-.86-.79-1.16-1.2-2.97-4.06-6.45-7.65-10.05-11.12-.48-.46-.91-1.1-2.02-.87 3.82 5.4 8.43 9.91 12.24 15.25-1.09 2.57-2.47 5.06-3.79 7.78-.49-.31-.89-.51-1.23-.78-2.58-2.11-5.09-4.31-7.73-6.34-2.14-1.64-4.41-3.11-6.65-4.63-.44-.3-.95-.49-1.55-.79q.43 1.12.98 1.55l14.2 11.23c.36.28.68.62 1.14 1.05l-2.27 3.23c-1.92-.56-3.49-1.66-5.18-2.48-1.66-.81-3.31-1.66-5.06-2.31 2.52 2.75 5.85 4.19 9.12 5.96-.86 1.8-1.92 3.2-3.44 4.47-5.2-3.6-10.18-7.53-16.38-9.46.28.3.51.67.85.89l11.07 7.45c.99.66 1.96 1.35 2.93 2.03-1.1 1.52-1.79 2.01-8.77 6.28-2.57-1.81-5.05-3.94-8.16-5.01-.37.57.05.82.31 1.02 1.38 1.08 2.77 2.12 4.18 3.17.82.61 1.67 1.19 2.56 1.82-.06 1.65.24 3.18 1.11 4.57.2.32.31.74.32 1.12.04 1.17.01 2.35.01 3.79-3.62-1.64-6.86-3.68-11.14-4.37 1.04 1.32 2.14 1.6 3.07 2.09 1.05.55 2.16.99 3.25 1.49l3.11 1.47c-1.18.57-2.26.95-3.19 1.57-.91.61-1.68 1.45-2.5 2.2-.24.21-.47.43-.67.67-.66.76-1.45.86-2.37.54-1.57-.55-3.16-1.07-4.75-1.56-.32-.1-.7-.01-1.47-.01 2.11 1.9 4.52 2.35 6.55 3.53l-1.02 5.1c-2.55-.68-4.85-2.18-7.58-2.15 2.15 1.67 4.84 2.21 7.24 3.58.15 1.84.5 3.68.49 5.66-1.76-.24-3.21-1.32-5.26-1.06.46.46.68.78.97.95 1.24.7 2.48 1.42 3.77 2 .73.32 1.22.76 1.37 1.5.22 1.07.37 2.17.59 3.47-.59-.05-1.06.02-1.45-.13-1.17-.47-2.35-.87-3.6-1.08-.31.66.19.8.48.92 1.31.57 2.65 1.06 3.96 1.63.41.18.91.48 1.06.85.51 1.22.93 2.49.93 4.06-2.45-.62-4.54-1.79-7.21-2.19.3.47.39.79.58.89 1.5.72 3.02 1.4 4.54 2.09.58.26 1.16.52 1.75.75.72.28 1.16.76 1.34 1.53l3.24 14.16c.17.76.13 1.56.22 2.65-.52-.33-.86-.46-1.09-.71l-4.98-5.45c-3.21-3.63-6.37-7.29-9.1-11.32-3.32-4.89-5.84-10.2-8.28-15.54-.55-1.21-.88-2.56-1.09-3.88-.52-3.22-.95-6.48-.57-9.72"/></defs><use href="#B"/><path d="M4.42 110.76h353.64v92.36H4.42z" fill="#1d1d1b"/><g clip-path="url(#A)"><use href="#B" fill="#fff"/></g></svg>